<?xml version="1.0" encoding="utf-8" standalone="no"?>
<!DOCTYPE svg PUBLIC "-//W3C//DTD SVG 1.1//EN"
  "http://www.w3.org/Graphics/SVG/1.1/DTD/svg11.dtd">
<svg xmlns:xlink="http://www.w3.org/1999/xlink" width="749.422581pt" height="294.192pt" viewBox="0 0 749.422581 294.192" xmlns="http://www.w3.org/2000/svg" version="1.1">
 <metadata>
  <rdf:RDF xmlns:dc="http://purl.org/dc/elements/1.1/" xmlns:cc="http://creativecommons.org/ns#" xmlns:rdf="http://www.w3.org/1999/02/22-rdf-syntax-ns#">
   <cc:Work>
    <dc:type rdf:resource="http://purl.org/dc/dcmitype/StillImage"/>
    <dc:date>2023-10-19T12:33:37.644433</dc:date>
    <dc:format>image/svg+xml</dc:format>
    <dc:creator>
     <cc:Agent>
      <dc:title>Matplotlib v3.8.0, https://matplotlib.org/</dc:title>
     </cc:Agent>
    </dc:creator>
   </cc:Work>
  </rdf:RDF>
 </metadata>
 <defs>
  <style type="text/css">*{stroke-linejoin: round; stroke-linecap: butt}</style>
 </defs>
 <g id="figure_1">
  <g id="patch_1">
   <path d="M 0 294.192 
L 749.422581 294.192 
L 749.422581 0 
L 0 0 
z
" style="fill: #ffffff"/>
  </g>
  <g id="axes_1">
   <g id="patch_2">
    <path d="M 66.896702 238.85997 
L 552.870291 238.85997 
L 552.870291 24.91263 
L 66.896702 24.91263 
z
" style="fill: #ffffff"/>
   </g>
   <g id="matplotlib.axis_1">
    <g id="xtick_1">
     <g id="line2d_1">
      <path d="M 76.242348 238.85997 
L 76.242348 24.91263 
" clip-path="url(#p7fb4876248)" style="fill: none; stroke: #cccccc; stroke-width: 0.8; stroke-linecap: round"/>
     </g>
     <g id="line2d_2">
      <defs>
       <path id="m52b2e2dd39" d="M 0 0 
L 0 4.8 
" style="stroke: #cccccc"/>
      </defs>
      <g>
       <use xlink:href="#m52b2e2dd39" x="76.242348" y="238.85997" style="fill: #cccccc; stroke: #cccccc"/>
      </g>
     </g>
     <g id="text_1">
      <!-- $\mathdefault{0}$ -->
      <g style="fill: #262626" transform="translate(72.130205 259.61327) scale(0.18 -0.18)">
       <defs>
        <path id="CMR17-30" d="M 2688 2038 
C 2688 2430 2682 3099 2413 3613 
C 2176 4063 1798 4224 1466 4224 
C 1158 4224 768 4082 525 3620 
C 269 3137 243 2539 243 2038 
C 243 1671 250 1112 448 623 
C 723 -39 1216 -128 1466 -128 
C 1760 -128 2208 -7 2470 604 
C 2662 1048 2688 1568 2688 2038 
z
M 1466 -26 
C 1056 -26 813 328 723 816 
C 653 1196 653 1749 653 2109 
C 653 2604 653 3015 736 3407 
C 858 3954 1216 4121 1466 4121 
C 1728 4121 2067 3947 2189 3420 
C 2272 3054 2278 2623 2278 2109 
C 2278 1691 2278 1176 2202 797 
C 2067 96 1690 -26 1466 -26 
z
" transform="scale(0.015625)"/>
       </defs>
       <use xlink:href="#CMR17-30" transform="scale(0.996264)"/>
      </g>
     </g>
    </g>
    <g id="xtick_2">
     <g id="line2d_3">
      <path d="M 122.970577 238.85997 
L 122.970577 24.91263 
" clip-path="url(#p7fb4876248)" style="fill: none; stroke: #cccccc; stroke-width: 0.8; stroke-linecap: round"/>
     </g>
     <g id="line2d_4">
      <g>
       <use xlink:href="#m52b2e2dd39" x="122.970577" y="238.85997" style="fill: #cccccc; stroke: #cccccc"/>
      </g>
     </g>
     <g id="text_2">
      <!-- $\mathdefault{5}$ -->
      <g style="fill: #262626" transform="translate(118.858434 259.61327) scale(0.18 -0.18)">
       <defs>
        <path id="CMR17-35" d="M 730 3750 
C 794 3724 1056 3641 1325 3641 
C 1920 3641 2246 3961 2432 4140 
C 2432 4191 2432 4224 2394 4224 
C 2387 4224 2374 4224 2323 4198 
C 2099 4102 1837 4032 1517 4032 
C 1325 4032 1037 4055 723 4191 
C 653 4224 640 4224 634 4224 
C 602 4224 595 4217 595 4090 
L 595 2231 
C 595 2113 595 2080 659 2080 
C 691 2080 704 2093 736 2139 
C 941 2435 1222 2560 1542 2560 
C 1766 2560 2246 2415 2246 1293 
C 2246 1087 2246 716 2054 422 
C 1894 159 1645 25 1370 25 
C 947 25 518 319 403 812 
C 429 806 480 793 506 793 
C 589 793 749 838 749 1036 
C 749 1209 627 1280 506 1280 
C 358 1280 262 1190 262 1011 
C 262 454 704 -128 1382 -128 
C 2042 -128 2669 441 2669 1267 
C 2669 2054 2170 2662 1549 2662 
C 1222 2662 947 2540 730 2304 
L 730 3750 
z
" transform="scale(0.015625)"/>
       </defs>
       <use xlink:href="#CMR17-35" transform="scale(0.996264)"/>
      </g>
     </g>
    </g>
    <g id="xtick_3">
     <g id="line2d_5">
      <path d="M 169.698807 238.85997 
L 169.698807 24.91263 
" clip-path="url(#p7fb4876248)" style="fill: none; stroke: #cccccc; stroke-width: 0.8; stroke-linecap: round"/>
     </g>
     <g id="line2d_6">
      <g>
       <use xlink:href="#m52b2e2dd39" x="169.698807" y="238.85997" style="fill: #cccccc; stroke: #cccccc"/>
      </g>
     </g>
     <g id="text_3">
      <!-- $\mathdefault{10}$ -->
      <g style="fill: #262626" transform="translate(161.474521 259.61327) scale(0.18 -0.18)">
       <defs>
        <path id="CMR17-31" d="M 1702 4083 
C 1702 4217 1696 4224 1606 4224 
C 1357 3927 979 3833 621 3820 
C 602 3820 570 3820 563 3808 
C 557 3795 557 3782 557 3648 
C 755 3648 1088 3686 1344 3839 
L 1344 467 
C 1344 243 1331 166 781 166 
L 589 166 
L 589 0 
C 896 6 1216 12 1523 12 
C 1830 12 2150 6 2458 0 
L 2458 166 
L 2266 166 
C 1715 166 1702 236 1702 467 
L 1702 4083 
z
" transform="scale(0.015625)"/>
       </defs>
       <use xlink:href="#CMR17-31" transform="scale(0.996264)"/>
       <use xlink:href="#CMR17-30" transform="translate(45.690477 0) scale(0.996264)"/>
      </g>
     </g>
    </g>
    <g id="xtick_4">
     <g id="line2d_7">
      <path d="M 216.427037 238.85997 
L 216.427037 24.91263 
" clip-path="url(#p7fb4876248)" style="fill: none; stroke: #cccccc; stroke-width: 0.8; stroke-linecap: round"/>
     </g>
     <g id="line2d_8">
      <g>
       <use xlink:href="#m52b2e2dd39" x="216.427037" y="238.85997" style="fill: #cccccc; stroke: #cccccc"/>
      </g>
     </g>
     <g id="text_4">
      <!-- $\mathdefault{15}$ -->
      <g style="fill: #262626" transform="translate(208.202751 259.61327) scale(0.18 -0.18)">
       <use xlink:href="#CMR17-31" transform="scale(0.996264)"/>
       <use xlink:href="#CMR17-35" transform="translate(45.690477 0) scale(0.996264)"/>
      </g>
     </g>
    </g>
    <g id="xtick_5">
     <g id="line2d_9">
      <path d="M 263.155267 238.85997 
L 263.155267 24.91263 
" clip-path="url(#p7fb4876248)" style="fill: none; stroke: #cccccc; stroke-width: 0.8; stroke-linecap: round"/>
     </g>
     <g id="line2d_10">
      <g>
       <use xlink:href="#m52b2e2dd39" x="263.155267" y="238.85997" style="fill: #cccccc; stroke: #cccccc"/>
      </g>
     </g>
     <g id="text_5">
      <!-- $\mathdefault{20}$ -->
      <g style="fill: #262626" transform="translate(254.930981 259.61327) scale(0.18 -0.18)">
       <defs>
        <path id="CMR17-32" d="M 2669 990 
L 2554 990 
C 2490 537 2438 460 2413 422 
C 2381 371 1920 371 1830 371 
L 602 371 
C 832 620 1280 1073 1824 1596 
C 2214 1966 2669 2400 2669 3033 
C 2669 3788 2067 4224 1395 4224 
C 691 4224 262 3603 262 3027 
C 262 2777 448 2745 525 2745 
C 589 2745 781 2783 781 3007 
C 781 3206 614 3264 525 3264 
C 486 3264 448 3257 422 3244 
C 544 3788 915 4057 1306 4057 
C 1862 4057 2227 3616 2227 3033 
C 2227 2477 1901 1998 1536 1583 
L 262 147 
L 262 0 
L 2515 0 
L 2669 990 
z
" transform="scale(0.015625)"/>
       </defs>
       <use xlink:href="#CMR17-32" transform="scale(0.996264)"/>
       <use xlink:href="#CMR17-30" transform="translate(45.690477 0) scale(0.996264)"/>
      </g>
     </g>
    </g>
    <g id="xtick_6">
     <g id="line2d_11">
      <path d="M 309.883496 238.85997 
L 309.883496 24.91263 
" clip-path="url(#p7fb4876248)" style="fill: none; stroke: #cccccc; stroke-width: 0.8; stroke-linecap: round"/>
     </g>
     <g id="line2d_12">
      <g>
       <use xlink:href="#m52b2e2dd39" x="309.883496" y="238.85997" style="fill: #cccccc; stroke: #cccccc"/>
      </g>
     </g>
     <g id="text_6">
      <!-- $\mathdefault{25}$ -->
      <g style="fill: #262626" transform="translate(301.65921 259.61327) scale(0.18 -0.18)">
       <use xlink:href="#CMR17-32" transform="scale(0.996264)"/>
       <use xlink:href="#CMR17-35" transform="translate(45.690477 0) scale(0.996264)"/>
      </g>
     </g>
    </g>
    <g id="xtick_7">
     <g id="line2d_13">
      <path d="M 356.611726 238.85997 
L 356.611726 24.91263 
" clip-path="url(#p7fb4876248)" style="fill: none; stroke: #cccccc; stroke-width: 0.8; stroke-linecap: round"/>
     </g>
     <g id="line2d_14">
      <g>
       <use xlink:href="#m52b2e2dd39" x="356.611726" y="238.85997" style="fill: #cccccc; stroke: #cccccc"/>
      </g>
     </g>
     <g id="text_7">
      <!-- $\mathdefault{30}$ -->
      <g style="fill: #262626" transform="translate(348.38744 259.61327) scale(0.18 -0.18)">
       <defs>
        <path id="CMR17-33" d="M 1414 2176 
C 1984 2176 2234 1673 2234 1094 
C 2234 322 1824 25 1453 25 
C 1114 25 563 193 390 691 
C 422 678 454 678 486 678 
C 640 678 755 780 755 947 
C 755 1132 614 1216 486 1216 
C 378 1216 211 1164 211 927 
C 211 335 787 -128 1466 -128 
C 2176 -128 2720 432 2720 1087 
C 2720 1718 2208 2176 1600 2246 
C 2086 2347 2554 2776 2554 3353 
C 2554 3856 2048 4224 1472 4224 
C 890 4224 378 3862 378 3347 
C 378 3123 544 3084 627 3084 
C 762 3084 877 3167 877 3334 
C 877 3500 762 3584 627 3584 
C 602 3584 570 3584 544 3571 
C 730 3999 1235 4076 1459 4076 
C 1683 4076 2106 3966 2106 3347 
C 2106 3167 2080 2851 1862 2574 
C 1670 2329 1453 2316 1242 2297 
C 1210 2297 1062 2284 1037 2284 
C 992 2278 966 2272 966 2227 
C 966 2182 973 2176 1101 2176 
L 1414 2176 
z
" transform="scale(0.015625)"/>
       </defs>
       <use xlink:href="#CMR17-33" transform="scale(0.996264)"/>
       <use xlink:href="#CMR17-30" transform="translate(45.690477 0) scale(0.996264)"/>
      </g>
     </g>
    </g>
    <g id="xtick_8">
     <g id="line2d_15">
      <path d="M 403.339956 238.85997 
L 403.339956 24.91263 
" clip-path="url(#p7fb4876248)" style="fill: none; stroke: #cccccc; stroke-width: 0.8; stroke-linecap: round"/>
     </g>
     <g id="line2d_16">
      <g>
       <use xlink:href="#m52b2e2dd39" x="403.339956" y="238.85997" style="fill: #cccccc; stroke: #cccccc"/>
      </g>
     </g>
     <g id="text_8">
      <!-- $\mathdefault{35}$ -->
      <g style="fill: #262626" transform="translate(395.11567 259.61327) scale(0.18 -0.18)">
       <use xlink:href="#CMR17-33" transform="scale(0.996264)"/>
       <use xlink:href="#CMR17-35" transform="translate(45.690477 0) scale(0.996264)"/>
      </g>
     </g>
    </g>
    <g id="xtick_9">
     <g id="line2d_17">
      <path d="M 450.068185 238.85997 
L 450.068185 24.91263 
" clip-path="url(#p7fb4876248)" style="fill: none; stroke: #cccccc; stroke-width: 0.8; stroke-linecap: round"/>
     </g>
     <g id="line2d_18">
      <g>
       <use xlink:href="#m52b2e2dd39" x="450.068185" y="238.85997" style="fill: #cccccc; stroke: #cccccc"/>
      </g>
     </g>
     <g id="text_9">
      <!-- $\mathdefault{40}$ -->
      <g style="fill: #262626" transform="translate(441.8439 259.61327) scale(0.18 -0.18)">
       <defs>
        <path id="CMR17-34" d="M 2150 4147 
C 2150 4281 2144 4288 2029 4288 
L 128 1254 
L 128 1088 
L 1779 1088 
L 1779 460 
C 1779 230 1766 166 1318 166 
L 1197 166 
L 1197 0 
C 1402 12 1747 12 1965 12 
C 2182 12 2528 12 2733 0 
L 2733 166 
L 2611 166 
C 2163 166 2150 230 2150 460 
L 2150 1088 
L 2803 1088 
L 2803 1254 
L 2150 1254 
L 2150 4147 
z
M 1798 3723 
L 1798 1254 
L 256 1254 
L 1798 3723 
z
" transform="scale(0.015625)"/>
       </defs>
       <use xlink:href="#CMR17-34" transform="scale(0.996264)"/>
       <use xlink:href="#CMR17-30" transform="translate(45.690477 0) scale(0.996264)"/>
      </g>
     </g>
    </g>
    <g id="xtick_10">
     <g id="line2d_19">
      <path d="M 496.796415 238.85997 
L 496.796415 24.91263 
" clip-path="url(#p7fb4876248)" style="fill: none; stroke: #cccccc; stroke-width: 0.8; stroke-linecap: round"/>
     </g>
     <g id="line2d_20">
      <g>
       <use xlink:href="#m52b2e2dd39" x="496.796415" y="238.85997" style="fill: #cccccc; stroke: #cccccc"/>
      </g>
     </g>
     <g id="text_10">
      <!-- $\mathdefault{45}$ -->
      <g style="fill: #262626" transform="translate(488.572129 259.61327) scale(0.18 -0.18)">
       <use xlink:href="#CMR17-34" transform="scale(0.996264)"/>
       <use xlink:href="#CMR17-35" transform="translate(45.690477 0) scale(0.996264)"/>
      </g>
     </g>
    </g>
    <g id="xtick_11">
     <g id="line2d_21">
      <path d="M 543.524645 238.85997 
L 543.524645 24.91263 
" clip-path="url(#p7fb4876248)" style="fill: none; stroke: #cccccc; stroke-width: 0.8; stroke-linecap: round"/>
     </g>
     <g id="line2d_22">
      <g>
       <use xlink:href="#m52b2e2dd39" x="543.524645" y="238.85997" style="fill: #cccccc; stroke: #cccccc"/>
      </g>
     </g>
     <g id="text_11">
      <!-- $\mathdefault{50}$ -->
      <g style="fill: #262626" transform="translate(535.300359 259.61327) scale(0.18 -0.18)">
       <use xlink:href="#CMR17-35" transform="scale(0.996264)"/>
       <use xlink:href="#CMR17-30" transform="translate(45.690477 0) scale(0.996264)"/>
      </g>
     </g>
    </g>
    <g id="xtick_12">
     <g id="line2d_23">
      <defs>
       <path id="mcd74c66629" d="M 0 0 
L 0 3.2 
" style="stroke: #cccccc; stroke-width: 0.8"/>
      </defs>
      <g>
       <use xlink:href="#mcd74c66629" x="85.587994" y="238.85997" style="fill: #cccccc; stroke: #cccccc; stroke-width: 0.8"/>
      </g>
     </g>
    </g>
    <g id="xtick_13">
     <g id="line2d_24">
      <g>
       <use xlink:href="#mcd74c66629" x="94.933639" y="238.85997" style="fill: #cccccc; stroke: #cccccc; stroke-width: 0.8"/>
      </g>
     </g>
    </g>
    <g id="xtick_14">
     <g id="line2d_25">
      <g>
       <use xlink:href="#mcd74c66629" x="104.279285" y="238.85997" style="fill: #cccccc; stroke: #cccccc; stroke-width: 0.8"/>
      </g>
     </g>
    </g>
    <g id="xtick_15">
     <g id="line2d_26">
      <g>
       <use xlink:href="#mcd74c66629" x="113.624931" y="238.85997" style="fill: #cccccc; stroke: #cccccc; stroke-width: 0.8"/>
      </g>
     </g>
    </g>
    <g id="text_12">
     <!-- samples/$H_1$ -->
     <g style="fill: #262626" transform="translate(262.771265 282.027356) scale(0.2 -0.2)">
      <defs>
       <path id="CMR17-73" d="M 1978 2688 
C 1978 2803 1971 2809 1933 2809 
C 1907 2809 1901 2803 1824 2707 
C 1805 2681 1747 2617 1728 2592 
C 1523 2809 1235 2816 1126 2816 
C 416 2816 160 2444 160 2073 
C 160 1497 813 1363 998 1324 
C 1402 1241 1542 1216 1677 1100 
C 1760 1024 1901 883 1901 652 
C 1901 384 1747 38 1158 38 
C 602 38 403 460 288 1024 
C 269 1113 269 1120 218 1120 
C 166 1120 160 1113 160 985 
L 160 64 
C 160 -52 166 -58 205 -58 
C 237 -58 243 -52 275 0 
C 314 57 410 211 448 275 
C 576 102 800 -64 1158 -64 
C 1792 -64 2131 281 2131 780 
C 2131 1107 1958 1280 1875 1356 
C 1683 1555 1459 1600 1190 1651 
C 838 1728 390 1817 390 2208 
C 390 2374 480 2726 1126 2726 
C 1811 2726 1850 2086 1862 1881 
C 1869 1849 1901 1843 1920 1843 
C 1978 1843 1978 1862 1978 1971 
L 1978 2688 
z
" transform="scale(0.015625)"/>
       <path id="CMR17-61" d="M 2304 1656 
C 2304 2048 2304 2275 2035 2534 
C 1798 2751 1523 2816 1306 2816 
C 800 2816 435 2408 435 1977 
C 435 1740 627 1728 666 1728 
C 749 1728 896 1779 896 1958 
C 896 2118 774 2188 666 2188 
C 640 2188 608 2182 589 2176 
C 723 2594 1069 2713 1293 2713 
C 1613 2713 1965 2421 1965 1875 
L 1965 1632 
C 1587 1619 1133 1568 774 1373 
C 371 1147 256 822 256 576 
C 256 77 832 -64 1171 -64 
C 1523 -64 1850 135 1990 505 
C 2003 219 2182 -39 2464 -39 
C 2598 -39 2938 51 2938 563 
L 2938 926 
L 2822 926 
L 2822 557 
C 2822 161 2650 109 2566 109 
C 2304 109 2304 446 2304 732 
L 2304 1656 
z
M 1965 887 
C 1965 323 1568 38 1216 38 
C 896 38 646 278 646 576 
C 646 771 730 1114 1101 1322 
C 1408 1497 1760 1523 1965 1536 
L 1965 887 
z
" transform="scale(0.015625)"/>
       <path id="CMR17-6d" d="M 4326 1954 
C 4326 2276 4269 2816 3507 2816 
C 3072 2816 2771 2520 2656 2173 
L 2650 2173 
C 2573 2700 2195 2816 1837 2816 
C 1331 2816 1069 2424 973 2166 
L 966 2166 
L 966 2816 
L 211 2745 
L 211 2578 
C 589 2578 646 2540 646 2231 
L 646 443 
C 646 198 621 166 211 166 
L 211 0 
C 365 12 646 12 813 12 
C 979 12 1267 12 1421 0 
L 1421 166 
C 1011 166 986 192 986 443 
L 986 1678 
C 986 2269 1344 2713 1792 2713 
C 2266 2713 2317 2289 2317 1980 
L 2317 443 
C 2317 198 2291 166 1882 166 
L 1882 0 
C 2035 12 2317 12 2483 12 
C 2650 12 2938 12 3091 0 
L 3091 166 
C 2682 166 2656 192 2656 443 
L 2656 1678 
C 2656 2269 3014 2713 3462 2713 
C 3936 2713 3987 2289 3987 1980 
L 3987 443 
C 3987 198 3962 166 3552 166 
L 3552 0 
C 3706 12 3987 12 4154 12 
C 4320 12 4608 12 4762 0 
L 4762 166 
C 4352 166 4326 192 4326 443 
L 4326 1954 
z
" transform="scale(0.015625)"/>
       <path id="CMR17-70" d="M 1408 -1114 
C 998 -1114 973 -1088 973 -834 
L 973 380 
C 1158 109 1427 -64 1766 -64 
C 2406 -64 3053 503 3053 1382 
C 3053 2196 2496 2816 1837 2816 
C 1453 2816 1139 2603 960 2345 
L 960 2816 
L 198 2745 
L 198 2577 
C 576 2577 634 2539 634 2228 
L 634 -834 
C 634 -1081 608 -1114 198 -1114 
L 198 -1280 
C 352 -1268 634 -1268 800 -1268 
C 966 -1268 1254 -1268 1408 -1280 
L 1408 -1114 
z
M 973 2015 
C 973 2106 973 2241 1222 2481 
C 1254 2506 1472 2700 1792 2700 
C 2259 2700 2643 2112 2643 1376 
C 2643 639 2234 38 1728 38 
C 1498 38 1248 148 1056 451 
C 973 594 973 632 973 736 
L 973 2015 
z
" transform="scale(0.015625)"/>
       <path id="CMR17-6c" d="M 979 4416 
L 218 4345 
L 218 4179 
C 595 4179 653 4141 653 3835 
L 653 439 
C 653 198 627 166 218 166 
L 218 0 
C 371 12 653 12 813 12 
C 979 12 1261 12 1414 0 
L 1414 166 
C 1005 166 979 191 979 439 
L 979 4416 
z
" transform="scale(0.015625)"/>
       <path id="CMR17-65" d="M 2438 1503 
C 2464 1529 2464 1542 2464 1606 
C 2464 2251 2118 2816 1389 2816 
C 710 2816 173 2175 173 1394 
C 173 554 781 -64 1459 -64 
C 2176 -64 2458 619 2458 755 
C 2458 800 2419 800 2406 800 
C 2362 800 2355 787 2330 709 
C 2189 270 1837 51 1504 51 
C 1229 51 954 206 781 490 
C 582 819 582 1200 582 1503 
L 2438 1503 
z
M 589 1600 
C 634 2511 1126 2713 1382 2713 
C 1818 2713 2112 2308 2118 1600 
L 589 1600 
z
" transform="scale(0.015625)"/>
       <path id="CMR17-2f" d="M 2605 4575 
C 2637 4658 2637 4671 2637 4684 
C 2637 4761 2579 4800 2528 4800 
C 2451 4800 2426 4748 2400 4671 
L 326 -1376 
C 294 -1460 294 -1472 294 -1485 
C 294 -1562 352 -1600 403 -1600 
C 480 -1600 506 -1549 531 -1472 
L 2605 4575 
z
" transform="scale(0.015625)"/>
       <path id="CMMI12-48" d="M 4787 3886 
C 4845 4102 4858 4166 5312 4166 
C 5427 4166 5491 4166 5491 4281 
C 5491 4352 5434 4352 5395 4352 
C 5280 4352 5146 4339 5024 4339 
L 4269 4339 
C 4147 4339 4013 4352 3891 4352 
C 3846 4352 3770 4352 3770 4230 
C 3770 4166 3814 4166 3936 4166 
C 4320 4166 4320 4115 4320 4045 
C 4320 4032 4320 3994 4294 3899 
L 3904 2361 
L 1971 2361 
L 2355 3886 
C 2413 4102 2426 4166 2880 4166 
C 2995 4166 3059 4166 3059 4281 
C 3059 4352 3002 4352 2963 4352 
C 2848 4352 2714 4339 2592 4339 
L 1837 4339 
C 1715 4339 1581 4352 1459 4352 
C 1414 4352 1338 4352 1338 4230 
C 1338 4166 1382 4166 1504 4166 
C 1888 4166 1888 4115 1888 4045 
C 1888 4032 1888 3994 1862 3899 
L 998 472 
C 941 249 928 185 486 185 
C 339 185 294 185 294 64 
C 294 0 365 0 384 0 
C 499 0 634 12 755 12 
L 1510 12 
C 1632 12 1766 0 1888 0 
C 1939 0 2010 0 2010 121 
C 2010 185 1952 185 1856 185 
C 1466 185 1466 236 1466 300 
C 1466 306 1466 351 1478 402 
L 1920 2176 
L 3859 2176 
C 3750 1755 3424 421 3411 383 
C 3341 191 3238 191 2861 185 
C 2784 185 2726 185 2726 64 
C 2726 0 2797 0 2816 0 
C 2931 0 3066 12 3187 12 
L 3942 12 
C 4064 12 4198 0 4320 0 
C 4371 0 4442 0 4442 121 
C 4442 185 4384 185 4288 185 
C 3898 185 3898 236 3898 300 
C 3898 306 3898 351 3910 402 
L 4787 3886 
z
" transform="scale(0.015625)"/>
      </defs>
      <use xlink:href="#CMR17-73" transform="scale(0.996264)"/>
      <use xlink:href="#CMR17-61" transform="translate(35.801338 0) scale(0.996264)"/>
      <use xlink:href="#CMR17-6d" transform="translate(81.491815 0) scale(0.996264)"/>
      <use xlink:href="#CMR17-70" transform="translate(158.411405 0) scale(0.996264)"/>
      <use xlink:href="#CMR17-6c" transform="translate(209.306774 0) scale(0.996264)"/>
      <use xlink:href="#CMR17-65" transform="translate(234.177833 0) scale(0.996264)"/>
      <use xlink:href="#CMR17-73" transform="translate(274.663493 0) scale(0.996264)"/>
      <use xlink:href="#CMR17-2f" transform="translate(310.464831 0) scale(0.996264)"/>
      <use xlink:href="#CMMI12-48" transform="translate(356.155308 0) scale(0.996264)"/>
      <use xlink:href="#CMR17-31" transform="translate(436.980145 -14.943915) scale(0.697382)"/>
     </g>
    </g>
   </g>
   <g id="matplotlib.axis_2">
    <g id="ytick_1">
     <g id="line2d_27">
      <path d="M 66.896702 221.031025 
L 552.870291 221.031025 
" clip-path="url(#p7fb4876248)" style="fill: none; stroke: #cccccc; stroke-width: 0.8; stroke-linecap: round"/>
     </g>
     <g id="text_13">
      <!-- 0\% -->
      <g style="fill: #262626" transform="translate(36.526891 227.257675) scale(0.18 -0.18)">
       <defs>
        <path id="CMR17-25" d="M 4640 928 
C 4640 1670 4275 2214 3846 2214 
C 3411 2214 2970 1708 2970 928 
C 2970 147 3405 -359 3846 -359 
C 4275 -359 4640 179 4640 928 
z
M 3853 -256 
C 3686 -256 3270 -103 3270 928 
C 3270 1964 3686 2112 3853 2112 
C 4205 2112 4525 1606 4525 928 
C 4525 249 4205 -256 3853 -256 
z
M 4083 4572 
C 4128 4644 4134 4651 4134 4684 
C 4134 4761 4077 4800 4026 4800 
C 3962 4800 3936 4755 3891 4703 
C 3520 4155 3008 4096 2746 4096 
C 2106 4096 1715 4479 1594 4598 
C 1510 4677 1389 4800 1171 4800 
C 736 4800 294 4281 294 3496 
C 294 2718 730 2214 1171 2214 
C 1600 2214 1965 2750 1965 3496 
C 1965 3936 1830 4241 1811 4281 
C 2202 4025 2586 3993 2752 3993 
C 3162 3993 3456 4148 3616 4261 
L 3622 4254 
L 858 -122 
C 800 -212 800 -224 800 -244 
C 800 -314 858 -359 915 -359 
C 973 -359 992 -327 1037 -256 
L 4083 4572 
z
M 1178 2316 
C 1011 2316 595 2469 595 3496 
C 595 4545 1011 4697 1178 4697 
C 1530 4697 1850 4175 1850 3496 
C 1850 2820 1530 2316 1178 2316 
z
" transform="scale(0.015625)"/>
       </defs>
       <use xlink:href="#CMR17-30" transform="scale(0.996264)"/>
       <use xlink:href="#CMR17-25" transform="translate(45.690477 0) scale(0.996264)"/>
      </g>
     </g>
    </g>
    <g id="ytick_2">
     <g id="line2d_28">
      <path d="M 66.896702 176.458663 
L 552.870291 176.458663 
" clip-path="url(#p7fb4876248)" style="fill: none; stroke: #cccccc; stroke-width: 0.8; stroke-linecap: round"/>
     </g>
     <g id="text_14">
      <!-- 25\% -->
      <g style="fill: #262626" transform="translate(28.302605 182.685313) scale(0.18 -0.18)">
       <use xlink:href="#CMR17-32" transform="scale(0.996264)"/>
       <use xlink:href="#CMR17-35" transform="translate(45.690477 0) scale(0.996264)"/>
       <use xlink:href="#CMR17-25" transform="translate(91.380954 0) scale(0.996264)"/>
      </g>
     </g>
    </g>
    <g id="ytick_3">
     <g id="line2d_29">
      <path d="M 66.896702 131.8863 
L 552.870291 131.8863 
" clip-path="url(#p7fb4876248)" style="fill: none; stroke: #cccccc; stroke-width: 0.8; stroke-linecap: round"/>
     </g>
     <g id="text_15">
      <!-- 50\% -->
      <g style="fill: #262626" transform="translate(28.302605 138.11295) scale(0.18 -0.18)">
       <use xlink:href="#CMR17-35" transform="scale(0.996264)"/>
       <use xlink:href="#CMR17-30" transform="translate(45.690477 0) scale(0.996264)"/>
       <use xlink:href="#CMR17-25" transform="translate(91.380954 0) scale(0.996264)"/>
      </g>
     </g>
    </g>
    <g id="ytick_4">
     <g id="line2d_30">
      <path d="M 66.896702 87.313938 
L 552.870291 87.313938 
" clip-path="url(#p7fb4876248)" style="fill: none; stroke: #cccccc; stroke-width: 0.8; stroke-linecap: round"/>
     </g>
     <g id="text_16">
      <!-- 75\% -->
      <g style="fill: #262626" transform="translate(28.302605 93.540588) scale(0.18 -0.18)">
       <defs>
        <path id="CMR17-37" d="M 2886 3955 
L 2886 4096 
L 1382 4096 
C 634 4096 621 4166 595 4288 
L 480 4288 
L 294 3104 
L 410 3104 
C 429 3226 474 3552 550 3673 
C 589 3724 1062 3724 1171 3724 
L 2579 3724 
L 1869 2670 
C 1395 1961 1069 1003 1069 166 
C 1069 89 1069 -128 1299 -128 
C 1530 -128 1530 89 1530 172 
L 1530 466 
C 1530 1514 1709 2204 2003 2644 
L 2886 3955 
z
" transform="scale(0.015625)"/>
       </defs>
       <use xlink:href="#CMR17-37" transform="scale(0.996264)"/>
       <use xlink:href="#CMR17-35" transform="translate(45.690477 0) scale(0.996264)"/>
       <use xlink:href="#CMR17-25" transform="translate(91.380954 0) scale(0.996264)"/>
      </g>
     </g>
    </g>
    <g id="ytick_5">
     <g id="line2d_31">
      <path d="M 66.896702 42.741575 
L 552.870291 42.741575 
" clip-path="url(#p7fb4876248)" style="fill: none; stroke: #cccccc; stroke-width: 0.8; stroke-linecap: round"/>
     </g>
     <g id="text_17">
      <!-- 100\% -->
      <g style="fill: #262626" transform="translate(20.078319 48.968225) scale(0.18 -0.18)">
       <use xlink:href="#CMR17-31" transform="scale(0.996264)"/>
       <use xlink:href="#CMR17-30" transform="translate(45.690477 0) scale(0.996264)"/>
       <use xlink:href="#CMR17-30" transform="translate(91.380954 0) scale(0.996264)"/>
       <use xlink:href="#CMR17-25" transform="translate(137.071431 0) scale(0.996264)"/>
      </g>
     </g>
    </g>
    <g id="text_18">
     <!-- $P$(correct) -->
     <g style="fill: #262626" transform="translate(7.2 17.808513) scale(0.2 -0.2)">
      <defs>
       <path id="CMMI12-50" d="M 1894 2022 
L 2970 2022 
C 3853 2022 4736 2673 4736 3400 
C 4736 3898 4314 4352 3507 4352 
L 1530 4352 
C 1408 4352 1350 4352 1350 4230 
C 1350 4166 1408 4166 1504 4166 
C 1894 4166 1894 4115 1894 4045 
C 1894 4032 1894 3994 1869 3898 
L 1005 471 
C 947 249 934 185 486 185 
C 365 185 301 185 301 70 
C 301 0 358 0 397 0 
C 518 0 646 12 768 12 
L 1517 12 
C 1638 12 1773 0 1894 0 
C 1946 0 2016 0 2016 121 
C 2016 185 1958 185 1862 185 
C 1478 185 1472 230 1472 293 
C 1472 325 1478 369 1485 401 
L 1894 2022 
z
M 2355 3917 
C 2413 4153 2438 4166 2688 4166 
L 3322 4166 
C 3802 4166 4198 4013 4198 3534 
C 4198 3369 4115 2826 3821 2533 
C 3712 2418 3405 2176 2822 2176 
L 1920 2176 
L 2355 3917 
z
" transform="scale(0.015625)"/>
       <path id="CMR17-28" d="M 1958 -1562 
C 1958 -1556 1958 -1543 1939 -1524 
C 1645 -1223 858 -403 858 1596 
C 858 3595 1632 4408 1946 4729 
C 1946 4735 1958 4748 1958 4767 
C 1958 4787 1939 4800 1914 4800 
C 1843 4800 1299 4325 986 3620 
C 666 2909 576 2218 576 1603 
C 576 1141 621 360 1005 -467 
C 1312 -1133 1837 -1600 1914 -1600 
C 1946 -1600 1958 -1588 1958 -1562 
z
" transform="scale(0.015625)"/>
       <path id="CMR17-63" d="M 2234 2240 
C 2112 2240 1933 2240 1933 2015 
C 1933 1836 2080 1785 2163 1785 
C 2208 1785 2394 1804 2394 2028 
C 2394 2476 1958 2816 1466 2816 
C 787 2816 211 2201 211 1379 
C 211 521 813 -64 1466 -64 
C 2259 -64 2458 676 2458 747 
C 2458 773 2451 792 2406 792 
C 2362 792 2355 786 2330 702 
C 2163 180 1798 51 1523 51 
C 1114 51 621 431 621 1385 
C 621 2358 1094 2700 1472 2700 
C 1722 2700 2093 2582 2234 2240 
z
" transform="scale(0.015625)"/>
       <path id="CMR17-6f" d="M 2758 1356 
C 2758 2176 2163 2816 1466 2816 
C 768 2816 173 2176 173 1356 
C 173 550 768 -64 1466 -64 
C 2163 -64 2758 550 2758 1356 
z
M 1466 51 
C 1165 51 909 230 762 480 
C 602 768 582 1126 582 1408 
C 582 1676 595 2009 762 2297 
C 890 2508 1139 2713 1466 2713 
C 1754 2713 1997 2553 2150 2329 
C 2349 2028 2349 1606 2349 1408 
C 2349 1158 2336 774 2163 467 
C 1984 172 1709 51 1466 51 
z
" transform="scale(0.015625)"/>
       <path id="CMR17-72" d="M 960 1517 
C 960 2134 1222 2713 1702 2713 
C 1747 2713 1792 2707 1837 2687 
C 1837 2687 1696 2642 1696 2475 
C 1696 2321 1818 2257 1914 2257 
C 1990 2257 2131 2302 2131 2482 
C 2131 2687 1926 2816 1709 2816 
C 1222 2816 1011 2340 947 2115 
L 941 2115 
L 941 2816 
L 198 2745 
L 198 2578 
C 576 2578 634 2540 634 2231 
L 634 443 
C 634 198 608 166 198 166 
L 198 0 
C 352 12 646 12 813 12 
C 998 12 1325 12 1498 0 
L 1498 166 
C 1037 166 960 166 960 455 
L 960 1517 
z
" transform="scale(0.015625)"/>
       <path id="CMR17-74" d="M 966 2585 
L 1862 2585 
L 1862 2752 
L 966 2752 
L 966 3968 
L 851 3968 
C 838 3292 614 2700 70 2687 
L 70 2585 
L 627 2585 
L 627 778 
C 627 655 627 -64 1370 -64 
C 1747 -64 1965 308 1965 784 
L 1965 1151 
L 1850 1151 
L 1850 790 
C 1850 347 1677 51 1408 51 
C 1222 51 966 179 966 765 
L 966 2585 
z
" transform="scale(0.015625)"/>
       <path id="CMR17-29" d="M 1683 1596 
C 1683 2057 1638 2839 1254 3665 
C 947 4332 422 4800 346 4800 
C 326 4800 301 4793 301 4761 
C 301 4748 307 4742 314 4729 
C 621 4408 1402 3595 1402 1603 
C 1402 -396 627 -1210 314 -1530 
C 307 -1543 301 -1549 301 -1562 
C 301 -1594 326 -1600 346 -1600 
C 416 -1600 960 -1127 1274 -422 
C 1594 289 1683 981 1683 1596 
z
" transform="scale(0.015625)"/>
      </defs>
      <use xlink:href="#CMMI12-50" transform="scale(0.996264)"/>
      <use xlink:href="#CMR17-28" transform="translate(76.425821 0) scale(0.996264)"/>
      <use xlink:href="#CMR17-63" transform="translate(111.706589 0) scale(0.996264)"/>
      <use xlink:href="#CMR17-6f" transform="translate(152.192249 0) scale(0.996264)"/>
      <use xlink:href="#CMR17-72" transform="translate(197.882726 0) scale(0.996264)"/>
      <use xlink:href="#CMR17-72" transform="translate(233.163494 0) scale(0.996264)"/>
      <use xlink:href="#CMR17-65" transform="translate(268.444262 0) scale(0.996264)"/>
      <use xlink:href="#CMR17-63" transform="translate(308.929922 0) scale(0.996264)"/>
      <use xlink:href="#CMR17-74" transform="translate(349.415583 0) scale(0.996264)"/>
      <use xlink:href="#CMR17-29" transform="translate(384.69635 0) scale(0.996264)"/>
     </g>
    </g>
   </g>
   <g id="PolyCollection_1">
    <defs>
     <path id="md064102aa6" d="M 85.587994 -123.082021 
L 85.587994 -107.03597 
L 94.933639 -196.774993 
L 104.279285 -227.678498 
L 113.624931 -235.404374 
L 122.970577 -243.427399 
L 169.698807 -248.478934 
L 216.427037 -249.66753 
L 263.155267 -251.450425 
L 309.883496 -251.450425 
L 356.611726 -249.66753 
L 403.339956 -251.450425 
L 450.068185 -251.450425 
L 496.796415 -251.450425 
L 543.524645 -251.450425 
L 543.524645 -251.450425 
L 543.524645 -251.450425 
L 496.796415 -251.450425 
L 450.068185 -251.450425 
L 403.339956 -251.450425 
L 356.611726 -251.450425 
L 309.883496 -251.450425 
L 263.155267 -251.450425 
L 216.427037 -251.450425 
L 169.698807 -251.450425 
L 122.970577 -248.478934 
L 113.624931 -244.913145 
L 104.279285 -239.564461 
L 94.933639 -214.024498 
L 85.587994 -123.082021 
z
" style="stroke: #0173b2; stroke-opacity: 0.2; stroke-width: 0.8"/>
    </defs>
    <g clip-path="url(#p7fb4876248)">
     <use xlink:href="#md064102aa6" x="0" y="294.192" style="fill: #0173b2; fill-opacity: 0.2; stroke: #0173b2; stroke-opacity: 0.2; stroke-width: 0.8"/>
    </g>
   </g>
   <g id="PolyCollection_2">
    <defs>
     <path id="m54c9978ce2" d="M 85.587994 -193.803503 
L 85.587994 -173.597365 
L 94.933639 -238.955306 
L 104.279285 -246.101741 
L 113.624931 -243.13025 
L 122.970577 -248.181785 
L 169.698807 -248.478934 
L 216.427037 -251.450425 
L 263.155267 -251.450425 
L 309.883496 -251.450425 
L 356.611726 -251.450425 
L 403.339956 -251.450425 
L 450.068185 -251.450425 
L 496.796415 -251.450425 
L 543.524645 -251.450425 
L 543.524645 -251.450425 
L 543.524645 -251.450425 
L 496.796415 -251.450425 
L 450.068185 -251.450425 
L 403.339956 -251.450425 
L 356.611726 -251.450425 
L 309.883496 -251.450425 
L 263.155267 -251.450425 
L 216.427037 -251.450425 
L 169.698807 -251.450425 
L 122.970577 -250.856126 
L 113.624931 -249.66753 
L 104.279285 -250.856126 
L 94.933639 -247.290338 
L 85.587994 -193.803503 
z
" style="stroke: #0173b2; stroke-opacity: 0.2; stroke-width: 0.8"/>
    </defs>
    <g clip-path="url(#p7fb4876248)">
     <use xlink:href="#m54c9978ce2" x="0" y="294.192" style="fill: #0173b2; fill-opacity: 0.2; stroke: #0173b2; stroke-opacity: 0.2; stroke-width: 0.8"/>
    </g>
   </g>
   <g id="PolyCollection_3">
    <defs>
     <path id="m7faef0ea94" d="M 85.587994 -200.935081 
L 85.587994 -181.917539 
L 94.933639 -240.753058 
L 104.279285 -246.101741 
L 113.624931 -251.450425 
L 122.970577 -251.450425 
L 169.698807 -249.66753 
L 216.427037 -249.66753 
L 263.155267 -249.66753 
L 309.883496 -251.450425 
L 356.611726 -251.450425 
L 403.339956 -251.450425 
L 450.068185 -251.450425 
L 496.796415 -251.450425 
L 543.524645 -251.450425 
L 543.524645 -251.450425 
L 543.524645 -251.450425 
L 496.796415 -251.450425 
L 450.068185 -251.450425 
L 403.339956 -251.450425 
L 356.611726 -251.450425 
L 309.883496 -251.450425 
L 263.155267 -251.450425 
L 216.427037 -251.450425 
L 169.698807 -251.450425 
L 122.970577 -251.450425 
L 113.624931 -251.450425 
L 104.279285 -250.856126 
L 94.933639 -248.478934 
L 85.587994 -200.935081 
z
" style="stroke: #0173b2; stroke-opacity: 0.2; stroke-width: 0.8"/>
    </defs>
    <g clip-path="url(#p7fb4876248)">
     <use xlink:href="#m7faef0ea94" x="0" y="294.192" style="fill: #0173b2; fill-opacity: 0.2; stroke: #0173b2; stroke-opacity: 0.2; stroke-width: 0.8"/>
    </g>
   </g>
   <g id="PolyCollection_4">
    <defs>
     <path id="md1d3273ba5" d="M 85.587994 -218.764026 
L 85.587994 -202.123677 
L 94.933639 -238.970163 
L 104.279285 -249.073232 
L 113.624931 -243.724549 
L 122.970577 -249.964679 
L 169.698807 -249.66753 
L 216.427037 -251.450425 
L 263.155267 -251.450425 
L 309.883496 -251.450425 
L 356.611726 -251.450425 
L 403.339956 -251.450425 
L 450.068185 -251.450425 
L 496.796415 -251.450425 
L 543.524645 -251.450425 
L 543.524645 -251.450425 
L 543.524645 -251.450425 
L 496.796415 -251.450425 
L 450.068185 -251.450425 
L 403.339956 -251.450425 
L 356.611726 -251.450425 
L 309.883496 -251.450425 
L 263.155267 -251.450425 
L 216.427037 -251.450425 
L 169.698807 -251.450425 
L 122.970577 -251.450425 
L 113.624931 -250.261828 
L 104.279285 -251.450425 
L 94.933639 -246.710897 
L 85.587994 -218.764026 
z
" style="stroke: #0173b2; stroke-opacity: 0.2; stroke-width: 0.8"/>
    </defs>
    <g clip-path="url(#p7fb4876248)">
     <use xlink:href="#md1d3273ba5" x="0" y="294.192" style="fill: #0173b2; fill-opacity: 0.2; stroke: #0173b2; stroke-opacity: 0.2; stroke-width: 0.8"/>
    </g>
   </g>
   <g id="PolyCollection_5">
    <defs>
     <path id="m42706b2528" d="M 85.587994 -73.160975 
L 85.587994 -73.160975 
L 94.933639 -73.160975 
L 104.279285 -73.160975 
L 113.624931 -73.160975 
L 122.970577 -73.160975 
L 169.698807 -73.160975 
L 216.427037 -80.292553 
L 263.155267 -121.299126 
L 309.883496 -157.536457 
L 356.611726 -174.785961 
L 403.339956 -192.614906 
L 450.068185 -202.123677 
L 496.796415 -211.632448 
L 543.524645 -216.981131 
L 543.524645 -231.244287 
L 543.524645 -231.244287 
L 496.796415 -227.0842 
L 450.068185 -219.358324 
L 403.339956 -211.038149 
L 356.611726 -194.397801 
L 309.883496 -177.163154 
L 263.155267 -140.316668 
L 216.427037 -91.584218 
L 169.698807 -73.160975 
L 122.970577 -73.160975 
L 113.624931 -73.160975 
L 104.279285 -73.160975 
L 94.933639 -73.160975 
L 85.587994 -73.160975 
z
" style="stroke: #de8f05; stroke-opacity: 0.2; stroke-width: 0.8"/>
    </defs>
    <g clip-path="url(#p7fb4876248)">
     <use xlink:href="#m42706b2528" x="0" y="294.192" style="fill: #de8f05; fill-opacity: 0.2; stroke: #de8f05; stroke-opacity: 0.2; stroke-width: 0.8"/>
    </g>
   </g>
   <g id="PolyCollection_6">
    <defs>
     <path id="m4f89575445" d="M 85.587994 -73.160975 
L 85.587994 -73.160975 
L 94.933639 -73.160975 
L 104.279285 -73.160975 
L 113.624931 -73.160975 
L 122.970577 -73.160975 
L 169.698807 -120.11053 
L 216.427037 -180.134645 
L 263.155267 -207.47236 
L 309.883496 -217.560572 
L 356.611726 -224.112709 
L 403.339956 -231.838585 
L 450.068185 -237.781567 
L 496.796415 -238.375865 
L 543.524645 -240.15876 
L 543.524645 -247.884636 
L 543.524645 -247.884636 
L 496.796415 -247.290338 
L 450.068185 -246.696039 
L 403.339956 -242.535952 
L 356.611726 -237.187269 
L 309.883496 -231.244287 
L 263.155267 -223.518411 
L 216.427037 -199.761342 
L 169.698807 -138.533773 
L 122.970577 -73.160975 
L 113.624931 -73.160975 
L 104.279285 -73.160975 
L 94.933639 -73.160975 
L 85.587994 -73.160975 
z
" style="stroke: #de8f05; stroke-opacity: 0.2; stroke-width: 0.8"/>
    </defs>
    <g clip-path="url(#p7fb4876248)">
     <use xlink:href="#m4f89575445" x="0" y="294.192" style="fill: #de8f05; fill-opacity: 0.2; stroke: #de8f05; stroke-opacity: 0.2; stroke-width: 0.8"/>
    </g>
   </g>
   <g id="PolyCollection_7">
    <defs>
     <path id="me7e6b226a1" d="M 85.587994 -73.160975 
L 85.587994 -73.160975 
L 94.933639 -73.160975 
L 104.279285 -73.160975 
L 113.624931 -92.772814 
L 122.970577 -134.663406 
L 169.698807 -222.924113 
L 216.427037 -235.983815 
L 263.155267 -241.941654 
L 309.883496 -244.318847 
L 356.611726 -244.318847 
L 403.339956 -246.696039 
L 450.068185 -248.478934 
L 496.796415 -248.478934 
L 543.524645 -248.478934 
L 543.524645 -251.450425 
L 543.524645 -251.450425 
L 496.796415 -251.450425 
L 450.068185 -251.450425 
L 403.339956 -250.856126 
L 356.611726 -250.261828 
L 309.883496 -249.66753 
L 263.155267 -249.073232 
L 216.427037 -245.507443 
L 169.698807 -235.998672 
L 122.970577 -148.636842 
L 113.624931 -107.630269 
L 104.279285 -73.160975 
L 94.933639 -73.160975 
L 85.587994 -73.160975 
z
" style="stroke: #de8f05; stroke-opacity: 0.2; stroke-width: 0.8"/>
    </defs>
    <g clip-path="url(#p7fb4876248)">
     <use xlink:href="#me7e6b226a1" x="0" y="294.192" style="fill: #de8f05; fill-opacity: 0.2; stroke: #de8f05; stroke-opacity: 0.2; stroke-width: 0.8"/>
    </g>
   </g>
   <g id="PolyCollection_8">
    <defs>
     <path id="m164be048ba" d="M 85.587994 -73.160975 
L 85.587994 -73.160975 
L 94.933639 -108.224567 
L 104.279285 -190.237714 
L 113.624931 -221.141218 
L 122.970577 -234.215778 
L 169.698807 -247.290338 
L 216.427037 -249.66753 
L 263.155267 -251.450425 
L 309.883496 -251.450425 
L 356.611726 -251.450425 
L 403.339956 -251.450425 
L 450.068185 -251.450425 
L 496.796415 -251.450425 
L 543.524645 -251.450425 
L 543.524645 -251.450425 
L 543.524645 -251.450425 
L 496.796415 -251.450425 
L 450.068185 -251.450425 
L 403.339956 -251.450425 
L 356.611726 -251.450425 
L 309.883496 -251.450425 
L 263.155267 -251.450425 
L 216.427037 -251.450425 
L 169.698807 -251.450425 
L 122.970577 -241.644505 
L 113.624931 -234.810076 
L 104.279285 -208.660957 
L 94.933639 -125.459214 
L 85.587994 -73.160975 
z
" style="stroke: #de8f05; stroke-opacity: 0.2; stroke-width: 0.8"/>
    </defs>
    <g clip-path="url(#p7fb4876248)">
     <use xlink:href="#m164be048ba" x="0" y="294.192" style="fill: #de8f05; fill-opacity: 0.2; stroke: #de8f05; stroke-opacity: 0.2; stroke-width: 0.8"/>
    </g>
   </g>
   <g id="line2d_32">
    <path d="M 76.242348 221.031025 
L 85.587994 179.430153 
L 94.933639 88.502534 
L 104.279285 59.976222 
L 113.624931 54.03324 
L 122.970577 48.090259 
L 169.698807 43.930172 
L 216.427037 43.335874 
L 263.155267 42.741575 
L 309.883496 42.741575 
L 356.611726 43.335874 
L 403.339956 42.741575 
L 450.068185 42.741575 
L 496.796415 42.741575 
L 543.524645 42.741575 
" clip-path="url(#p7fb4876248)" style="fill: none; stroke: #0173b2; stroke-width: 3; stroke-linecap: round"/>
    <defs>
     <path id="m2c14255c8e" d="M 0 5 
C 1.326016 5 2.597899 4.473168 3.535534 3.535534 
C 4.473168 2.597899 5 1.326016 5 0 
C 5 -1.326016 4.473168 -2.597899 3.535534 -3.535534 
C 2.597899 -4.473168 1.326016 -5 0 -5 
C -1.326016 -5 -2.597899 -4.473168 -3.535534 -3.535534 
C -4.473168 -2.597899 -5 -1.326016 -5 0 
C -5 1.326016 -4.473168 2.597899 -3.535534 3.535534 
C -2.597899 4.473168 -1.326016 5 0 5 
z
" style="stroke: #ffffff; stroke-width: 0.75"/>
    </defs>
    <g clip-path="url(#p7fb4876248)">
     <use xlink:href="#m2c14255c8e" x="76.242348" y="221.031025" style="fill: #0173b2; stroke: #ffffff; stroke-width: 0.75"/>
     <use xlink:href="#m2c14255c8e" x="85.587994" y="179.430153" style="fill: #0173b2; stroke: #ffffff; stroke-width: 0.75"/>
     <use xlink:href="#m2c14255c8e" x="94.933639" y="88.502534" style="fill: #0173b2; stroke: #ffffff; stroke-width: 0.75"/>
     <use xlink:href="#m2c14255c8e" x="104.279285" y="59.976222" style="fill: #0173b2; stroke: #ffffff; stroke-width: 0.75"/>
     <use xlink:href="#m2c14255c8e" x="113.624931" y="54.03324" style="fill: #0173b2; stroke: #ffffff; stroke-width: 0.75"/>
     <use xlink:href="#m2c14255c8e" x="122.970577" y="48.090259" style="fill: #0173b2; stroke: #ffffff; stroke-width: 0.75"/>
     <use xlink:href="#m2c14255c8e" x="169.698807" y="43.930172" style="fill: #0173b2; stroke: #ffffff; stroke-width: 0.75"/>
     <use xlink:href="#m2c14255c8e" x="216.427037" y="43.335874" style="fill: #0173b2; stroke: #ffffff; stroke-width: 0.75"/>
     <use xlink:href="#m2c14255c8e" x="263.155267" y="42.741575" style="fill: #0173b2; stroke: #ffffff; stroke-width: 0.75"/>
     <use xlink:href="#m2c14255c8e" x="309.883496" y="42.741575" style="fill: #0173b2; stroke: #ffffff; stroke-width: 0.75"/>
     <use xlink:href="#m2c14255c8e" x="356.611726" y="43.335874" style="fill: #0173b2; stroke: #ffffff; stroke-width: 0.75"/>
     <use xlink:href="#m2c14255c8e" x="403.339956" y="42.741575" style="fill: #0173b2; stroke: #ffffff; stroke-width: 0.75"/>
     <use xlink:href="#m2c14255c8e" x="450.068185" y="42.741575" style="fill: #0173b2; stroke: #ffffff; stroke-width: 0.75"/>
     <use xlink:href="#m2c14255c8e" x="496.796415" y="42.741575" style="fill: #0173b2; stroke: #ffffff; stroke-width: 0.75"/>
     <use xlink:href="#m2c14255c8e" x="543.524645" y="42.741575" style="fill: #0173b2; stroke: #ffffff; stroke-width: 0.75"/>
    </g>
   </g>
   <g id="line2d_33">
    <path d="M 76.242348 221.031025 
L 85.587994 110.491566 
L 94.933639 51.06175 
L 104.279285 45.713066 
L 113.624931 47.495961 
L 122.970577 44.52447 
L 169.698807 43.930172 
L 216.427037 42.741575 
L 263.155267 42.741575 
L 309.883496 42.741575 
L 356.611726 42.741575 
L 403.339956 42.741575 
L 450.068185 42.741575 
L 496.796415 42.741575 
L 543.524645 42.741575 
" clip-path="url(#p7fb4876248)" style="fill: none; stroke-dasharray: 12,4.5; stroke-dashoffset: 0; stroke: #0173b2; stroke-width: 3"/>
    <g clip-path="url(#p7fb4876248)">
     <use xlink:href="#m2c14255c8e" x="76.242348" y="221.031025" style="fill: #0173b2; stroke: #ffffff; stroke-width: 0.75"/>
     <use xlink:href="#m2c14255c8e" x="85.587994" y="110.491566" style="fill: #0173b2; stroke: #ffffff; stroke-width: 0.75"/>
     <use xlink:href="#m2c14255c8e" x="94.933639" y="51.06175" style="fill: #0173b2; stroke: #ffffff; stroke-width: 0.75"/>
     <use xlink:href="#m2c14255c8e" x="104.279285" y="45.713066" style="fill: #0173b2; stroke: #ffffff; stroke-width: 0.75"/>
     <use xlink:href="#m2c14255c8e" x="113.624931" y="47.495961" style="fill: #0173b2; stroke: #ffffff; stroke-width: 0.75"/>
     <use xlink:href="#m2c14255c8e" x="122.970577" y="44.52447" style="fill: #0173b2; stroke: #ffffff; stroke-width: 0.75"/>
     <use xlink:href="#m2c14255c8e" x="169.698807" y="43.930172" style="fill: #0173b2; stroke: #ffffff; stroke-width: 0.75"/>
     <use xlink:href="#m2c14255c8e" x="216.427037" y="42.741575" style="fill: #0173b2; stroke: #ffffff; stroke-width: 0.75"/>
     <use xlink:href="#m2c14255c8e" x="263.155267" y="42.741575" style="fill: #0173b2; stroke: #ffffff; stroke-width: 0.75"/>
     <use xlink:href="#m2c14255c8e" x="309.883496" y="42.741575" style="fill: #0173b2; stroke: #ffffff; stroke-width: 0.75"/>
     <use xlink:href="#m2c14255c8e" x="356.611726" y="42.741575" style="fill: #0173b2; stroke: #ffffff; stroke-width: 0.75"/>
     <use xlink:href="#m2c14255c8e" x="403.339956" y="42.741575" style="fill: #0173b2; stroke: #ffffff; stroke-width: 0.75"/>
     <use xlink:href="#m2c14255c8e" x="450.068185" y="42.741575" style="fill: #0173b2; stroke: #ffffff; stroke-width: 0.75"/>
     <use xlink:href="#m2c14255c8e" x="496.796415" y="42.741575" style="fill: #0173b2; stroke: #ffffff; stroke-width: 0.75"/>
     <use xlink:href="#m2c14255c8e" x="543.524645" y="42.741575" style="fill: #0173b2; stroke: #ffffff; stroke-width: 0.75"/>
    </g>
   </g>
   <g id="line2d_34">
    <path d="M 76.242348 221.031025 
L 85.587994 102.76569 
L 94.933639 49.278855 
L 104.279285 45.118768 
L 113.624931 42.741575 
L 122.970577 42.741575 
L 169.698807 43.335874 
L 216.427037 43.335874 
L 263.155267 43.335874 
L 309.883496 42.741575 
L 356.611726 42.741575 
L 403.339956 42.741575 
L 450.068185 42.741575 
L 496.796415 42.741575 
L 543.524645 42.741575 
" clip-path="url(#p7fb4876248)" style="fill: none; stroke-dasharray: 3,3; stroke-dashoffset: 0; stroke: #0173b2; stroke-width: 3"/>
    <g clip-path="url(#p7fb4876248)">
     <use xlink:href="#m2c14255c8e" x="76.242348" y="221.031025" style="fill: #0173b2; stroke: #ffffff; stroke-width: 0.75"/>
     <use xlink:href="#m2c14255c8e" x="85.587994" y="102.76569" style="fill: #0173b2; stroke: #ffffff; stroke-width: 0.75"/>
     <use xlink:href="#m2c14255c8e" x="94.933639" y="49.278855" style="fill: #0173b2; stroke: #ffffff; stroke-width: 0.75"/>
     <use xlink:href="#m2c14255c8e" x="104.279285" y="45.118768" style="fill: #0173b2; stroke: #ffffff; stroke-width: 0.75"/>
     <use xlink:href="#m2c14255c8e" x="113.624931" y="42.741575" style="fill: #0173b2; stroke: #ffffff; stroke-width: 0.75"/>
     <use xlink:href="#m2c14255c8e" x="122.970577" y="42.741575" style="fill: #0173b2; stroke: #ffffff; stroke-width: 0.75"/>
     <use xlink:href="#m2c14255c8e" x="169.698807" y="43.335874" style="fill: #0173b2; stroke: #ffffff; stroke-width: 0.75"/>
     <use xlink:href="#m2c14255c8e" x="216.427037" y="43.335874" style="fill: #0173b2; stroke: #ffffff; stroke-width: 0.75"/>
     <use xlink:href="#m2c14255c8e" x="263.155267" y="43.335874" style="fill: #0173b2; stroke: #ffffff; stroke-width: 0.75"/>
     <use xlink:href="#m2c14255c8e" x="309.883496" y="42.741575" style="fill: #0173b2; stroke: #ffffff; stroke-width: 0.75"/>
     <use xlink:href="#m2c14255c8e" x="356.611726" y="42.741575" style="fill: #0173b2; stroke: #ffffff; stroke-width: 0.75"/>
     <use xlink:href="#m2c14255c8e" x="403.339956" y="42.741575" style="fill: #0173b2; stroke: #ffffff; stroke-width: 0.75"/>
     <use xlink:href="#m2c14255c8e" x="450.068185" y="42.741575" style="fill: #0173b2; stroke: #ffffff; stroke-width: 0.75"/>
     <use xlink:href="#m2c14255c8e" x="496.796415" y="42.741575" style="fill: #0173b2; stroke: #ffffff; stroke-width: 0.75"/>
     <use xlink:href="#m2c14255c8e" x="543.524645" y="42.741575" style="fill: #0173b2; stroke: #ffffff; stroke-width: 0.75"/>
    </g>
   </g>
   <g id="line2d_35">
    <path d="M 76.242348 221.031025 
L 85.587994 83.748149 
L 94.933639 51.06175 
L 104.279285 43.335874 
L 113.624931 46.901662 
L 122.970577 43.335874 
L 169.698807 43.335874 
L 216.427037 42.741575 
L 263.155267 42.741575 
L 309.883496 42.741575 
L 356.611726 42.741575 
L 403.339956 42.741575 
L 450.068185 42.741575 
L 496.796415 42.741575 
L 543.524645 42.741575 
" clip-path="url(#p7fb4876248)" style="fill: none; stroke-dasharray: 9,3.75,4.5,3.75; stroke-dashoffset: 0; stroke: #0173b2; stroke-width: 3"/>
    <g clip-path="url(#p7fb4876248)">
     <use xlink:href="#m2c14255c8e" x="76.242348" y="221.031025" style="fill: #0173b2; stroke: #ffffff; stroke-width: 0.75"/>
     <use xlink:href="#m2c14255c8e" x="85.587994" y="83.748149" style="fill: #0173b2; stroke: #ffffff; stroke-width: 0.75"/>
     <use xlink:href="#m2c14255c8e" x="94.933639" y="51.06175" style="fill: #0173b2; stroke: #ffffff; stroke-width: 0.75"/>
     <use xlink:href="#m2c14255c8e" x="104.279285" y="43.335874" style="fill: #0173b2; stroke: #ffffff; stroke-width: 0.75"/>
     <use xlink:href="#m2c14255c8e" x="113.624931" y="46.901662" style="fill: #0173b2; stroke: #ffffff; stroke-width: 0.75"/>
     <use xlink:href="#m2c14255c8e" x="122.970577" y="43.335874" style="fill: #0173b2; stroke: #ffffff; stroke-width: 0.75"/>
     <use xlink:href="#m2c14255c8e" x="169.698807" y="43.335874" style="fill: #0173b2; stroke: #ffffff; stroke-width: 0.75"/>
     <use xlink:href="#m2c14255c8e" x="216.427037" y="42.741575" style="fill: #0173b2; stroke: #ffffff; stroke-width: 0.75"/>
     <use xlink:href="#m2c14255c8e" x="263.155267" y="42.741575" style="fill: #0173b2; stroke: #ffffff; stroke-width: 0.75"/>
     <use xlink:href="#m2c14255c8e" x="309.883496" y="42.741575" style="fill: #0173b2; stroke: #ffffff; stroke-width: 0.75"/>
     <use xlink:href="#m2c14255c8e" x="356.611726" y="42.741575" style="fill: #0173b2; stroke: #ffffff; stroke-width: 0.75"/>
     <use xlink:href="#m2c14255c8e" x="403.339956" y="42.741575" style="fill: #0173b2; stroke: #ffffff; stroke-width: 0.75"/>
     <use xlink:href="#m2c14255c8e" x="450.068185" y="42.741575" style="fill: #0173b2; stroke: #ffffff; stroke-width: 0.75"/>
     <use xlink:href="#m2c14255c8e" x="496.796415" y="42.741575" style="fill: #0173b2; stroke: #ffffff; stroke-width: 0.75"/>
     <use xlink:href="#m2c14255c8e" x="543.524645" y="42.741575" style="fill: #0173b2; stroke: #ffffff; stroke-width: 0.75"/>
    </g>
   </g>
   <g id="line2d_36">
    <path d="M 76.242348 221.031025 
L 85.587994 221.031025 
L 94.933639 221.031025 
L 104.279285 221.031025 
L 113.624931 221.031025 
L 122.970577 221.031025 
L 169.698807 221.031025 
L 216.427037 208.550764 
L 263.155267 163.384103 
L 309.883496 127.131915 
L 356.611726 109.30297 
L 403.339956 92.068323 
L 450.068185 83.748149 
L 496.796415 74.833676 
L 543.524645 69.484993 
" clip-path="url(#p7fb4876248)" style="fill: none; stroke: #de8f05; stroke-width: 3; stroke-linecap: round"/>
    <defs>
     <path id="m8f4e6b69db" d="M 0 5 
C 1.326016 5 2.597899 4.473168 3.535534 3.535534 
C 4.473168 2.597899 5 1.326016 5 0 
C 5 -1.326016 4.473168 -2.597899 3.535534 -3.535534 
C 2.597899 -4.473168 1.326016 -5 0 -5 
C -1.326016 -5 -2.597899 -4.473168 -3.535534 -3.535534 
C -4.473168 -2.597899 -5 -1.326016 -5 0 
C -5 1.326016 -4.473168 2.597899 -3.535534 3.535534 
C -2.597899 4.473168 -1.326016 5 0 5 
z
" style="stroke: #ffffff; stroke-width: 0.75"/>
    </defs>
    <g clip-path="url(#p7fb4876248)">
     <use xlink:href="#m8f4e6b69db" x="76.242348" y="221.031025" style="fill: #de8f05; stroke: #ffffff; stroke-width: 0.75"/>
     <use xlink:href="#m8f4e6b69db" x="85.587994" y="221.031025" style="fill: #de8f05; stroke: #ffffff; stroke-width: 0.75"/>
     <use xlink:href="#m8f4e6b69db" x="94.933639" y="221.031025" style="fill: #de8f05; stroke: #ffffff; stroke-width: 0.75"/>
     <use xlink:href="#m8f4e6b69db" x="104.279285" y="221.031025" style="fill: #de8f05; stroke: #ffffff; stroke-width: 0.75"/>
     <use xlink:href="#m8f4e6b69db" x="113.624931" y="221.031025" style="fill: #de8f05; stroke: #ffffff; stroke-width: 0.75"/>
     <use xlink:href="#m8f4e6b69db" x="122.970577" y="221.031025" style="fill: #de8f05; stroke: #ffffff; stroke-width: 0.75"/>
     <use xlink:href="#m8f4e6b69db" x="169.698807" y="221.031025" style="fill: #de8f05; stroke: #ffffff; stroke-width: 0.75"/>
     <use xlink:href="#m8f4e6b69db" x="216.427037" y="208.550764" style="fill: #de8f05; stroke: #ffffff; stroke-width: 0.75"/>
     <use xlink:href="#m8f4e6b69db" x="263.155267" y="163.384103" style="fill: #de8f05; stroke: #ffffff; stroke-width: 0.75"/>
     <use xlink:href="#m8f4e6b69db" x="309.883496" y="127.131915" style="fill: #de8f05; stroke: #ffffff; stroke-width: 0.75"/>
     <use xlink:href="#m8f4e6b69db" x="356.611726" y="109.30297" style="fill: #de8f05; stroke: #ffffff; stroke-width: 0.75"/>
     <use xlink:href="#m8f4e6b69db" x="403.339956" y="92.068323" style="fill: #de8f05; stroke: #ffffff; stroke-width: 0.75"/>
     <use xlink:href="#m8f4e6b69db" x="450.068185" y="83.748149" style="fill: #de8f05; stroke: #ffffff; stroke-width: 0.75"/>
     <use xlink:href="#m8f4e6b69db" x="496.796415" y="74.833676" style="fill: #de8f05; stroke: #ffffff; stroke-width: 0.75"/>
     <use xlink:href="#m8f4e6b69db" x="543.524645" y="69.484993" style="fill: #de8f05; stroke: #ffffff; stroke-width: 0.75"/>
    </g>
   </g>
   <g id="line2d_37">
    <path d="M 76.242348 221.031025 
L 85.587994 221.031025 
L 94.933639 221.031025 
L 104.279285 221.031025 
L 113.624931 221.031025 
L 122.970577 221.031025 
L 169.698807 165.166997 
L 216.427037 103.954286 
L 263.155267 77.805167 
L 309.883496 69.484993 
L 356.611726 62.947713 
L 403.339956 56.410433 
L 450.068185 51.656048 
L 496.796415 51.06175 
L 543.524645 49.873153 
" clip-path="url(#p7fb4876248)" style="fill: none; stroke-dasharray: 12,4.5; stroke-dashoffset: 0; stroke: #de8f05; stroke-width: 3"/>
    <g clip-path="url(#p7fb4876248)">
     <use xlink:href="#m8f4e6b69db" x="76.242348" y="221.031025" style="fill: #de8f05; stroke: #ffffff; stroke-width: 0.75"/>
     <use xlink:href="#m8f4e6b69db" x="85.587994" y="221.031025" style="fill: #de8f05; stroke: #ffffff; stroke-width: 0.75"/>
     <use xlink:href="#m8f4e6b69db" x="94.933639" y="221.031025" style="fill: #de8f05; stroke: #ffffff; stroke-width: 0.75"/>
     <use xlink:href="#m8f4e6b69db" x="104.279285" y="221.031025" style="fill: #de8f05; stroke: #ffffff; stroke-width: 0.75"/>
     <use xlink:href="#m8f4e6b69db" x="113.624931" y="221.031025" style="fill: #de8f05; stroke: #ffffff; stroke-width: 0.75"/>
     <use xlink:href="#m8f4e6b69db" x="122.970577" y="221.031025" style="fill: #de8f05; stroke: #ffffff; stroke-width: 0.75"/>
     <use xlink:href="#m8f4e6b69db" x="169.698807" y="165.166997" style="fill: #de8f05; stroke: #ffffff; stroke-width: 0.75"/>
     <use xlink:href="#m8f4e6b69db" x="216.427037" y="103.954286" style="fill: #de8f05; stroke: #ffffff; stroke-width: 0.75"/>
     <use xlink:href="#m8f4e6b69db" x="263.155267" y="77.805167" style="fill: #de8f05; stroke: #ffffff; stroke-width: 0.75"/>
     <use xlink:href="#m8f4e6b69db" x="309.883496" y="69.484993" style="fill: #de8f05; stroke: #ffffff; stroke-width: 0.75"/>
     <use xlink:href="#m8f4e6b69db" x="356.611726" y="62.947713" style="fill: #de8f05; stroke: #ffffff; stroke-width: 0.75"/>
     <use xlink:href="#m8f4e6b69db" x="403.339956" y="56.410433" style="fill: #de8f05; stroke: #ffffff; stroke-width: 0.75"/>
     <use xlink:href="#m8f4e6b69db" x="450.068185" y="51.656048" style="fill: #de8f05; stroke: #ffffff; stroke-width: 0.75"/>
     <use xlink:href="#m8f4e6b69db" x="496.796415" y="51.06175" style="fill: #de8f05; stroke: #ffffff; stroke-width: 0.75"/>
     <use xlink:href="#m8f4e6b69db" x="543.524645" y="49.873153" style="fill: #de8f05; stroke: #ffffff; stroke-width: 0.75"/>
    </g>
   </g>
   <g id="line2d_38">
    <path d="M 76.242348 221.031025 
L 85.587994 221.031025 
L 94.933639 221.031025 
L 104.279285 221.031025 
L 113.624931 194.287608 
L 122.970577 152.092438 
L 169.698807 64.730607 
L 216.427037 53.438942 
L 263.155267 48.684557 
L 309.883496 46.901662 
L 356.611726 46.901662 
L 403.339956 45.118768 
L 450.068185 43.930172 
L 496.796415 43.930172 
L 543.524645 43.930172 
" clip-path="url(#p7fb4876248)" style="fill: none; stroke-dasharray: 3,3; stroke-dashoffset: 0; stroke: #de8f05; stroke-width: 3"/>
    <g clip-path="url(#p7fb4876248)">
     <use xlink:href="#m8f4e6b69db" x="76.242348" y="221.031025" style="fill: #de8f05; stroke: #ffffff; stroke-width: 0.75"/>
     <use xlink:href="#m8f4e6b69db" x="85.587994" y="221.031025" style="fill: #de8f05; stroke: #ffffff; stroke-width: 0.75"/>
     <use xlink:href="#m8f4e6b69db" x="94.933639" y="221.031025" style="fill: #de8f05; stroke: #ffffff; stroke-width: 0.75"/>
     <use xlink:href="#m8f4e6b69db" x="104.279285" y="221.031025" style="fill: #de8f05; stroke: #ffffff; stroke-width: 0.75"/>
     <use xlink:href="#m8f4e6b69db" x="113.624931" y="194.287608" style="fill: #de8f05; stroke: #ffffff; stroke-width: 0.75"/>
     <use xlink:href="#m8f4e6b69db" x="122.970577" y="152.092438" style="fill: #de8f05; stroke: #ffffff; stroke-width: 0.75"/>
     <use xlink:href="#m8f4e6b69db" x="169.698807" y="64.730607" style="fill: #de8f05; stroke: #ffffff; stroke-width: 0.75"/>
     <use xlink:href="#m8f4e6b69db" x="216.427037" y="53.438942" style="fill: #de8f05; stroke: #ffffff; stroke-width: 0.75"/>
     <use xlink:href="#m8f4e6b69db" x="263.155267" y="48.684557" style="fill: #de8f05; stroke: #ffffff; stroke-width: 0.75"/>
     <use xlink:href="#m8f4e6b69db" x="309.883496" y="46.901662" style="fill: #de8f05; stroke: #ffffff; stroke-width: 0.75"/>
     <use xlink:href="#m8f4e6b69db" x="356.611726" y="46.901662" style="fill: #de8f05; stroke: #ffffff; stroke-width: 0.75"/>
     <use xlink:href="#m8f4e6b69db" x="403.339956" y="45.118768" style="fill: #de8f05; stroke: #ffffff; stroke-width: 0.75"/>
     <use xlink:href="#m8f4e6b69db" x="450.068185" y="43.930172" style="fill: #de8f05; stroke: #ffffff; stroke-width: 0.75"/>
     <use xlink:href="#m8f4e6b69db" x="496.796415" y="43.930172" style="fill: #de8f05; stroke: #ffffff; stroke-width: 0.75"/>
     <use xlink:href="#m8f4e6b69db" x="543.524645" y="43.930172" style="fill: #de8f05; stroke: #ffffff; stroke-width: 0.75"/>
    </g>
   </g>
   <g id="line2d_39">
    <path d="M 76.242348 221.031025 
L 85.587994 221.031025 
L 94.933639 177.647259 
L 104.279285 94.445516 
L 113.624931 65.919204 
L 122.970577 56.113284 
L 169.698807 44.52447 
L 216.427037 43.335874 
L 263.155267 42.741575 
L 309.883496 42.741575 
L 356.611726 42.741575 
L 403.339956 42.741575 
L 450.068185 42.741575 
L 496.796415 42.741575 
L 543.524645 42.741575 
" clip-path="url(#p7fb4876248)" style="fill: none; stroke-dasharray: 9,3.75,4.5,3.75; stroke-dashoffset: 0; stroke: #de8f05; stroke-width: 3"/>
    <g clip-path="url(#p7fb4876248)">
     <use xlink:href="#m8f4e6b69db" x="76.242348" y="221.031025" style="fill: #de8f05; stroke: #ffffff; stroke-width: 0.75"/>
     <use xlink:href="#m8f4e6b69db" x="85.587994" y="221.031025" style="fill: #de8f05; stroke: #ffffff; stroke-width: 0.75"/>
     <use xlink:href="#m8f4e6b69db" x="94.933639" y="177.647259" style="fill: #de8f05; stroke: #ffffff; stroke-width: 0.75"/>
     <use xlink:href="#m8f4e6b69db" x="104.279285" y="94.445516" style="fill: #de8f05; stroke: #ffffff; stroke-width: 0.75"/>
     <use xlink:href="#m8f4e6b69db" x="113.624931" y="65.919204" style="fill: #de8f05; stroke: #ffffff; stroke-width: 0.75"/>
     <use xlink:href="#m8f4e6b69db" x="122.970577" y="56.113284" style="fill: #de8f05; stroke: #ffffff; stroke-width: 0.75"/>
     <use xlink:href="#m8f4e6b69db" x="169.698807" y="44.52447" style="fill: #de8f05; stroke: #ffffff; stroke-width: 0.75"/>
     <use xlink:href="#m8f4e6b69db" x="216.427037" y="43.335874" style="fill: #de8f05; stroke: #ffffff; stroke-width: 0.75"/>
     <use xlink:href="#m8f4e6b69db" x="263.155267" y="42.741575" style="fill: #de8f05; stroke: #ffffff; stroke-width: 0.75"/>
     <use xlink:href="#m8f4e6b69db" x="309.883496" y="42.741575" style="fill: #de8f05; stroke: #ffffff; stroke-width: 0.75"/>
     <use xlink:href="#m8f4e6b69db" x="356.611726" y="42.741575" style="fill: #de8f05; stroke: #ffffff; stroke-width: 0.75"/>
     <use xlink:href="#m8f4e6b69db" x="403.339956" y="42.741575" style="fill: #de8f05; stroke: #ffffff; stroke-width: 0.75"/>
     <use xlink:href="#m8f4e6b69db" x="450.068185" y="42.741575" style="fill: #de8f05; stroke: #ffffff; stroke-width: 0.75"/>
     <use xlink:href="#m8f4e6b69db" x="496.796415" y="42.741575" style="fill: #de8f05; stroke: #ffffff; stroke-width: 0.75"/>
     <use xlink:href="#m8f4e6b69db" x="543.524645" y="42.741575" style="fill: #de8f05; stroke: #ffffff; stroke-width: 0.75"/>
    </g>
   </g>
   <g id="line2d_40"/>
   <g id="line2d_41"/>
   <g id="line2d_42"/>
   <g id="line2d_43"/>
   <g id="line2d_44"/>
   <g id="line2d_45"/>
   <g id="patch_3">
    <path d="M 66.896702 238.85997 
L 66.896702 24.91263 
" style="fill: none; stroke: #cccccc; stroke-linejoin: miter; stroke-linecap: square"/>
   </g>
   <g id="patch_4">
    <path d="M 66.896702 238.85997 
L 552.870291 238.85997 
" style="fill: none; stroke: #cccccc; stroke-linejoin: miter; stroke-linecap: square"/>
   </g>
   <g id="text_19">
    <!-- $d$=1024, $\beta=0.1$ -->
    <g style="fill: #262626" transform="translate(243.258789 21.036997) scale(0.2 -0.2)">
     <defs>
      <path id="CMMI12-64" d="M 3219 4255 
C 3226 4281 3238 4319 3238 4351 
C 3238 4416 3174 4416 3162 4416 
C 3155 4416 2842 4390 2810 4383 
C 2701 4377 2605 4364 2490 4358 
C 2330 4345 2285 4339 2285 4223 
C 2285 4159 2336 4159 2426 4159 
C 2739 4159 2746 4103 2746 4040 
C 2746 4002 2733 3951 2726 3932 
L 2336 2394 
C 2266 2560 2093 2816 1760 2816 
C 1037 2816 256 1883 256 938 
C 256 306 627 -64 1062 -64 
C 1414 -64 1715 210 1894 421 
C 1958 44 2259 -64 2451 -64 
C 2643 -64 2797 51 2912 281 
C 3014 498 3104 887 3104 913 
C 3104 945 3078 970 3040 970 
C 2982 970 2976 938 2950 842 
C 2854 466 2733 64 2470 64 
C 2285 64 2272 230 2272 357 
C 2272 383 2272 517 2317 696 
L 3219 4255 
z
M 1926 759 
C 1894 651 1894 638 1805 517 
C 1664 338 1382 64 1082 64 
C 819 64 672 300 672 676 
C 672 1028 870 1743 992 2011 
C 1210 2458 1510 2687 1760 2687 
C 2182 2687 2266 2164 2266 2113 
C 2266 2107 2246 2024 2240 2011 
L 1926 759 
z
" transform="scale(0.015625)"/>
      <path id="CMR17-3d" d="M 4115 2048 
C 4211 2048 4307 2048 4307 2156 
C 4307 2272 4198 2272 4090 2272 
L 512 2272 
C 403 2272 294 2272 294 2156 
C 294 2048 390 2048 486 2048 
L 4115 2048 
z
M 4090 927 
C 4198 927 4307 927 4307 1043 
C 4307 1152 4211 1152 4115 1152 
L 486 1152 
C 390 1152 294 1152 294 1043 
C 294 927 403 927 512 927 
L 4090 927 
z
" transform="scale(0.015625)"/>
      <path id="CMR17-2c" d="M 1011 102 
C 1024 44 1024 25 1024 -76 
C 1024 -451 896 -795 627 -1108 
C 595 -1140 595 -1152 595 -1165 
C 595 -1191 621 -1216 646 -1216 
C 685 -1216 1126 -776 1126 -82 
C 1126 128 1101 524 800 524 
C 659 524 538 428 538 262 
C 538 96 659 0 800 0 
C 877 0 960 32 1011 102 
z
" transform="scale(0.015625)"/>
      <path id="CMMI12-c" d="M 3622 3739 
C 3622 4131 3296 4544 2714 4544 
C 1888 4544 1363 3510 1197 2830 
L 186 -1152 
C 173 -1204 211 -1216 243 -1216 
C 288 -1216 320 -1210 326 -1178 
L 774 592 
C 838 231 1190 -64 1568 -64 
C 2483 -64 3347 657 3347 1618 
C 3347 1863 3290 2108 3155 2314 
C 3078 2437 2982 2527 2880 2599 
C 3341 2823 3622 3222 3622 3739 
z
M 2509 2605 
C 2406 2571 2304 2560 2182 2560 
C 2093 2560 2010 2553 1894 2588 
C 1958 2627 2054 2639 2189 2639 
C 2304 2639 2419 2627 2509 2605 
z
M 3290 3798 
C 3290 3438 3117 2915 2701 2684 
C 2579 2723 2413 2752 2272 2752 
C 2138 2752 1754 2765 1754 2582 
C 1754 2411 2106 2430 2214 2430 
C 2381 2430 2528 2469 2682 2514 
C 2886 2347 2976 2127 2976 1805 
C 2976 1431 2874 1128 2752 850 
C 2541 373 2042 64 1600 64 
C 1133 64 890 438 890 876 
C 890 934 890 1018 915 1115 
L 1331 2784 
C 1542 3641 2080 4413 2701 4413 
C 3162 4413 3290 4086 3290 3798 
z
" transform="scale(0.015625)"/>
      <path id="CMMI12-3a" d="M 1178 307 
C 1178 492 1024 620 870 620 
C 685 620 557 467 557 313 
C 557 128 710 0 864 0 
C 1050 0 1178 153 1178 307 
z
" transform="scale(0.015625)"/>
     </defs>
     <use xlink:href="#CMMI12-64" transform="scale(0.996264)"/>
     <use xlink:href="#CMR17-3d" transform="translate(50.689097 0) scale(0.996264)"/>
     <use xlink:href="#CMR17-31" transform="translate(122.403885 0) scale(0.996264)"/>
     <use xlink:href="#CMR17-30" transform="translate(168.094362 0) scale(0.996264)"/>
     <use xlink:href="#CMR17-32" transform="translate(213.784839 0) scale(0.996264)"/>
     <use xlink:href="#CMR17-34" transform="translate(259.475317 0) scale(0.996264)"/>
     <use xlink:href="#CMR17-2c" transform="translate(305.165794 0) scale(0.996264)"/>
     <use xlink:href="#CMMI12-c" transform="translate(360.112819 0) scale(0.996264)"/>
     <use xlink:href="#CMR17-3d" transform="translate(448.380843 0) scale(0.996264)"/>
     <use xlink:href="#CMR17-30" transform="translate(547.76964 0) scale(0.996264)"/>
     <use xlink:href="#CMMI12-3a" transform="translate(593.460117 0) scale(0.996264)"/>
     <use xlink:href="#CMR17-31" transform="translate(620.557294 0) scale(0.996264)"/>
    </g>
   </g>
  </g>
  <g id="legend_1">
   <g id="text_20">
    <!-- algorithm -->
    <g style="fill: #262626" transform="translate(635.121837 70.785693) scale(0.165 -0.165)">
     <defs>
      <path id="CMR17-67" d="M 710 1165 
C 832 1068 1043 960 1299 960 
C 1805 960 2240 1359 2240 1895 
C 2240 2063 2189 2321 1997 2521 
C 2176 2713 2438 2777 2586 2777 
C 2611 2777 2650 2777 2682 2758 
C 2656 2751 2598 2726 2598 2623 
C 2598 2540 2656 2483 2739 2483 
C 2835 2483 2886 2547 2886 2630 
C 2886 2751 2790 2880 2586 2880 
C 2330 2880 2106 2758 1926 2591 
C 1734 2764 1504 2828 1299 2828 
C 794 2828 358 2431 358 1895 
C 358 1527 570 1294 634 1230 
C 442 1004 442 742 442 710 
C 442 544 506 300 723 166 
C 390 82 128 -184 128 -517 
C 128 -996 736 -1344 1466 -1344 
C 2170 -1344 2803 -1009 2803 -510 
C 2803 384 1856 384 1363 384 
C 1216 384 954 384 922 390 
C 723 422 589 601 589 825 
C 589 883 589 1024 710 1165 
z
M 1299 1068 
C 736 1068 736 1766 736 1895 
C 736 2024 736 2719 1299 2719 
C 1862 2719 1862 2024 1862 1895 
C 1862 1766 1862 1068 1299 1068 
z
M 1466 -1236 
C 826 -1236 384 -883 384 -517 
C 384 -311 493 -118 634 -11 
C 794 102 858 102 1293 102 
C 1818 102 2547 102 2547 -517 
C 2547 -883 2106 -1236 1466 -1236 
z
" transform="scale(0.015625)"/>
      <path id="CMR17-69" d="M 992 3961 
C 992 4102 877 4224 730 4224 
C 589 4224 467 4108 467 3961 
C 467 3820 582 3699 730 3699 
C 870 3699 992 3814 992 3961 
z
M 243 2745 
L 243 2579 
C 602 2579 653 2540 653 2231 
L 653 443 
C 653 198 627 166 218 166 
L 218 0 
C 371 12 646 12 806 12 
C 960 12 1222 12 1370 0 
L 1370 166 
C 992 166 979 205 979 436 
L 979 2816 
L 243 2745 
z
" transform="scale(0.015625)"/>
      <path id="CMR17-68" d="M 2656 1954 
C 2656 2282 2592 2816 1837 2816 
C 1312 2816 1056 2392 979 2179 
L 973 2179 
L 973 4416 
L 211 4345 
L 211 4179 
C 589 4179 646 4141 646 3843 
L 646 443 
C 646 198 621 166 211 166 
L 211 0 
C 365 12 646 12 813 12 
C 979 12 1267 12 1421 0 
L 1421 166 
C 1011 166 986 192 986 443 
L 986 1678 
C 986 2269 1344 2713 1792 2713 
C 2266 2713 2317 2289 2317 1980 
L 2317 443 
C 2317 198 2291 166 1882 166 
L 1882 0 
C 2035 12 2317 12 2483 12 
C 2650 12 2938 12 3091 0 
L 3091 166 
C 2682 166 2656 192 2656 443 
L 2656 1954 
z
" transform="scale(0.015625)"/>
     </defs>
     <use xlink:href="#CMR17-61" transform="scale(0.996264)"/>
     <use xlink:href="#CMR17-6c" transform="translate(45.690477 0) scale(0.996264)"/>
     <use xlink:href="#CMR17-67" transform="translate(70.561536 0) scale(0.996264)"/>
     <use xlink:href="#CMR17-6f" transform="translate(116.252013 0) scale(0.996264)"/>
     <use xlink:href="#CMR17-72" transform="translate(161.94249 0) scale(0.996264)"/>
     <use xlink:href="#CMR17-69" transform="translate(197.223258 0) scale(0.996264)"/>
     <use xlink:href="#CMR17-74" transform="translate(222.094316 0) scale(0.996264)"/>
     <use xlink:href="#CMR17-68" transform="translate(257.375084 0) scale(0.996264)"/>
     <use xlink:href="#CMR17-6d" transform="translate(308.270454 0) scale(0.996264)"/>
    </g>
   </g>
   <g id="line2d_46">
    <path d="M 588.921837 88.00702 
L 605.421837 88.00702 
L 621.921837 88.00702 
" style="fill: none; stroke: #0173b2; stroke-width: 3; stroke-linecap: round"/>
   </g>
   <g id="text_21">
    <!-- \textsc{MidSearch} -->
    <g style="fill: #262626" transform="translate(635.121837 93.78202) scale(0.165 -0.165)">
     <defs>
      <path id="CMCSC10-4d" d="M 4762 4166 
L 4768 4159 
L 4768 497 
C 4768 268 4755 198 4262 198 
L 4109 198 
L 4109 0 
C 4346 19 4781 19 5030 19 
C 5280 19 5709 19 5946 0 
L 5946 198 
L 5792 198 
C 5299 198 5286 268 5286 497 
L 5286 3854 
C 5286 4083 5299 4153 5792 4153 
L 5946 4153 
L 5946 4352 
L 4864 4352 
C 4717 4352 4698 4352 4646 4230 
L 3162 606 
L 1677 4236 
C 1632 4352 1594 4352 1459 4352 
L 378 4352 
L 378 4153 
L 531 4153 
C 1024 4153 1037 4083 1037 3854 
L 1037 669 
C 1037 497 1037 198 378 198 
L 378 0 
C 602 6 915 19 1126 19 
C 1338 19 1651 6 1875 0 
L 1875 198 
C 1216 198 1216 497 1216 669 
L 1216 4115 
L 1222 4121 
L 2861 115 
C 2886 57 2918 0 2982 0 
C 3046 0 3078 57 3104 115 
L 4762 4166 
z
" transform="scale(0.015625)"/>
      <path id="CMCSC10-69" d="M 1197 2799 
C 1197 3072 1229 3103 1683 3103 
L 1683 3264 
C 1466 3257 1133 3244 966 3244 
C 800 3244 467 3257 250 3264 
L 250 3103 
C 704 3103 736 3072 736 2799 
L 736 464 
C 736 191 704 160 250 160 
L 250 0 
C 467 6 800 19 966 19 
C 1133 19 1466 6 1683 0 
L 1683 160 
C 1229 160 1197 191 1197 464 
L 1197 2799 
z
" transform="scale(0.015625)"/>
      <path id="CMCSC10-64" d="M 749 458 
C 749 198 717 160 288 160 
L 288 0 
L 2086 0 
C 2989 0 3667 737 3667 1606 
C 3667 2482 3008 3264 2086 3264 
L 288 3264 
L 288 3103 
C 717 3103 749 3065 749 2805 
L 749 458 
z
M 1446 160 
C 1222 160 1190 179 1190 432 
L 1190 2831 
C 1190 3084 1222 3103 1446 3103 
L 1939 3103 
C 2490 3103 2765 2805 2854 2691 
C 2995 2513 3136 2247 3136 1606 
C 3136 1086 3040 819 2906 616 
C 2803 477 2528 160 1939 160 
L 1446 160 
z
" transform="scale(0.015625)"/>
      <path id="CMCSC10-53" d="M 1562 2712 
C 1005 2847 870 3291 870 3522 
C 870 3959 1235 4364 1779 4364 
C 2662 4364 3002 3715 3091 3059 
C 3104 2976 3104 2944 3174 2944 
C 3258 2944 3258 2976 3258 3098 
L 3258 4390 
C 3258 4499 3258 4544 3187 4544 
C 3142 4544 3142 4537 3091 4460 
L 2854 4081 
C 2682 4255 2387 4544 1773 4544 
C 1030 4544 461 3979 461 3297 
C 461 2886 678 2596 762 2500 
C 1062 2185 1254 2140 1786 2011 
C 1888 1986 1997 1966 2099 1941 
C 2477 1851 2605 1819 2803 1600 
C 2842 1555 3034 1336 3034 989 
C 3034 533 2694 70 2112 70 
C 1843 70 1414 121 1062 398 
C 646 726 627 1195 621 1414 
C 614 1459 576 1471 544 1471 
C 461 1471 461 1426 461 1311 
L 461 25 
C 461 -84 461 -128 531 -128 
C 576 -128 589 -109 627 -52 
L 864 333 
C 1043 147 1459 -128 2118 -128 
C 2918 -128 3443 520 3443 1201 
C 3443 1716 3136 2326 2432 2500 
L 1562 2712 
z
" transform="scale(0.015625)"/>
      <path id="CMCSC10-65" d="M 3123 3244 
L 275 3244 
L 275 3084 
C 704 3084 736 3046 736 2785 
L 736 456 
C 736 197 704 160 275 160 
L 275 0 
L 3200 0 
L 3386 1227 
L 3226 1227 
C 3117 463 2963 160 2144 160 
L 1453 160 
C 1229 160 1197 178 1197 431 
L 1197 1600 
L 1645 1600 
C 2118 1600 2195 1473 2195 1050 
L 2355 1050 
L 2355 2314 
L 2195 2314 
C 2195 1887 2118 1760 1645 1760 
L 1197 1760 
L 1197 2810 
C 1197 3065 1229 3084 1453 3084 
L 2106 3084 
C 2848 3084 3014 2861 3085 2167 
L 3245 2167 
L 3123 3244 
z
" transform="scale(0.015625)"/>
      <path id="CMCSC10-61" d="M 2106 3251 
C 2067 3353 2035 3392 1965 3392 
C 1875 3392 1862 3353 1830 3270 
L 800 636 
C 730 462 621 172 218 160 
L 218 0 
C 358 12 544 19 685 19 
C 794 19 1088 6 1216 0 
L 1216 160 
C 947 172 928 392 928 450 
C 928 501 928 514 1146 1088 
L 2470 1088 
L 2611 727 
C 2662 598 2746 379 2746 340 
C 2746 160 2515 160 2406 160 
L 2406 0 
C 2579 6 2957 19 3085 19 
C 3302 19 3552 6 3706 0 
L 3706 160 
C 3347 160 3290 192 3206 417 
L 2106 3251 
z
M 2406 1248 
L 1210 1248 
L 1811 2780 
L 2406 1248 
z
" transform="scale(0.015625)"/>
      <path id="CMCSC10-72" d="M 1190 2826 
C 1190 2987 1203 3052 1267 3084 
C 1312 3103 1485 3103 1600 3103 
C 2074 3103 2618 3084 2618 2393 
C 2618 2141 2586 1676 1754 1676 
L 1190 1676 
L 1190 2826 
z
M 2323 1593 
C 2771 1709 3168 1999 3168 2393 
C 3168 2845 2598 3264 1824 3264 
L 288 3264 
L 288 3103 
C 717 3103 749 3065 749 2800 
L 749 452 
C 749 197 717 160 288 160 
L 288 0 
C 480 6 787 19 966 19 
C 1152 19 1485 6 1651 0 
L 1651 160 
C 1222 160 1190 197 1190 452 
L 1190 1536 
L 1766 1536 
C 1926 1536 2093 1529 2291 1339 
C 2426 1204 2426 1057 2426 787 
C 2426 444 2426 333 2630 143 
C 2746 32 3002 -64 3290 -64 
C 3699 -64 3795 321 3795 444 
C 3795 474 3795 536 3712 536 
C 3642 536 3635 481 3635 456 
C 3590 82 3360 76 3315 76 
C 3187 76 3130 156 3091 223 
C 3040 321 3002 493 2918 885 
C 2867 1100 2803 1413 2323 1593 
z
" transform="scale(0.015625)"/>
      <path id="CMCSC10-63" d="M 3046 2989 
C 2912 3130 2598 3392 2118 3392 
C 1152 3392 326 2632 326 1664 
C 326 695 1152 -64 2118 -64 
C 2950 -64 3456 599 3456 1154 
C 3456 1211 3456 1256 3373 1256 
C 3302 1256 3302 1217 3296 1154 
C 3251 478 2701 96 2163 96 
C 1843 96 877 268 877 1664 
C 877 3079 1869 3231 2157 3231 
C 2624 3231 3168 2900 3290 2091 
C 3302 2046 3309 2008 3373 2008 
C 3456 2008 3456 2040 3456 2161 
L 3456 3238 
C 3456 3340 3456 3392 3392 3392 
C 3354 3392 3347 3379 3296 3315 
L 3046 2989 
z
" transform="scale(0.015625)"/>
      <path id="CMCSC10-68" d="M 2726 1792 
L 1197 1792 
L 1197 2808 
C 1197 3066 1229 3103 1658 3103 
L 1658 3264 
C 1472 3257 1107 3244 966 3244 
C 826 3244 467 3257 275 3264 
L 275 3103 
C 704 3103 736 3066 736 2808 
L 736 460 
C 736 198 704 160 275 160 
L 275 0 
C 461 6 826 19 966 19 
C 1107 19 1466 6 1658 0 
L 1658 160 
C 1229 160 1197 198 1197 460 
L 1197 1631 
L 2726 1631 
L 2726 460 
C 2726 198 2694 160 2266 160 
L 2266 0 
C 2451 6 2816 19 2957 19 
C 3098 19 3456 6 3648 0 
L 3648 160 
C 3219 160 3187 198 3187 460 
L 3187 2808 
C 3187 3066 3219 3103 3648 3103 
L 3648 3264 
C 3462 3257 3098 3244 2957 3244 
C 2816 3244 2458 3257 2266 3264 
L 2266 3103 
C 2694 3103 2726 3066 2726 2808 
L 2726 1792 
z
" transform="scale(0.015625)"/>
     </defs>
     <use xlink:href="#CMCSC10-4d" transform="scale(0.996264)"/>
     <use xlink:href="#CMCSC10-69" transform="translate(98.518465 0) scale(0.996264)"/>
     <use xlink:href="#CMCSC10-64" transform="translate(128.627677 0) scale(0.996264)"/>
     <use xlink:href="#CMCSC10-53" transform="translate(190.838691 0) scale(0.996264)"/>
     <use xlink:href="#CMCSC10-65" transform="translate(251.720872 0) scale(0.996264)"/>
     <use xlink:href="#CMCSC10-61" transform="translate(307.29003 0) scale(0.996264)"/>
     <use xlink:href="#CMCSC10-72" transform="translate(368.394065 0) scale(0.996264)"/>
     <use xlink:href="#CMCSC10-63" transform="translate(426.177165 0) scale(0.996264)"/>
     <use xlink:href="#CMCSC10-68" transform="translate(485.067152 0) scale(0.996264)"/>
    </g>
   </g>
   <g id="line2d_47">
    <path d="M 588.921837 111.003346 
L 605.421837 111.003346 
L 621.921837 111.003346 
" style="fill: none; stroke: #de8f05; stroke-width: 3; stroke-linecap: round"/>
   </g>
   <g id="text_22">
    <!-- \textsc{Tsallis-INF} -->
    <g style="fill: #262626" transform="translate(635.121837 116.778346) scale(0.165 -0.165)">
     <defs>
      <path id="CMCSC10-54" d="M 4570 4313 
L 454 4313 
L 333 2879 
L 493 2879 
C 582 3949 710 4115 1715 4115 
C 1837 4115 2022 4115 2086 4102 
C 2227 4083 2227 4007 2227 3860 
L 2227 504 
C 2227 287 2227 198 1555 198 
L 1299 198 
L 1299 0 
C 1562 19 2214 19 2509 19 
C 2803 19 3462 19 3725 0 
L 3725 198 
L 3469 198 
C 2797 198 2797 287 2797 504 
L 2797 3860 
C 2797 4007 2797 4083 2938 4102 
C 3002 4115 3187 4115 3309 4115 
C 4307 4115 4442 3949 4531 2879 
L 4691 2879 
L 4570 4313 
z
" transform="scale(0.015625)"/>
      <path id="CMCSC10-73" d="M 2458 3238 
C 2458 3340 2458 3392 2394 3392 
C 2355 3392 2349 3385 2253 3244 
C 2221 3212 2157 3117 2131 3079 
C 1888 3315 1594 3392 1331 3392 
C 749 3392 326 2957 326 2460 
C 326 2103 531 1893 608 1816 
C 800 1625 928 1600 1517 1466 
C 1862 1383 1926 1370 2074 1236 
C 2106 1211 2278 1039 2278 758 
C 2278 440 2029 96 1587 96 
C 1421 96 1075 121 800 344 
C 512 567 493 880 486 1052 
C 480 1103 429 1109 410 1109 
C 326 1109 326 1064 326 950 
L 326 89 
C 326 -13 326 -64 390 -64 
C 429 -64 435 -58 531 83 
C 563 115 627 210 653 248 
C 838 83 1171 -64 1587 -64 
C 2208 -64 2605 427 2605 931 
C 2605 1332 2355 1587 2355 1593 
C 2118 1836 2016 1855 1472 1982 
C 1338 2014 1114 2065 1075 2078 
C 755 2205 653 2454 653 2645 
C 653 2938 909 3251 1338 3251 
C 2150 3251 2266 2505 2291 2301 
C 2304 2256 2304 2218 2374 2218 
C 2458 2218 2458 2250 2458 2371 
L 2458 3238 
z
" transform="scale(0.015625)"/>
      <path id="CMCSC10-6c" d="M 3027 1232 
L 2867 1232 
C 2816 724 2752 160 1856 160 
L 1453 160 
C 1229 160 1197 179 1197 432 
L 1197 2786 
C 1197 3103 1293 3103 1773 3103 
L 1773 3264 
C 1587 3257 1178 3244 986 3244 
C 826 3244 506 3257 275 3264 
L 275 3103 
C 704 3103 736 3065 736 2805 
L 736 458 
C 736 198 704 160 275 160 
L 275 0 
L 2906 0 
L 3027 1232 
z
" transform="scale(0.015625)"/>
      <path id="CMCSC10-2d" d="M 1952 1216 
L 1952 1587 
L 166 1587 
L 166 1216 
L 1952 1216 
z
" transform="scale(0.015625)"/>
      <path id="CMCSC10-49" d="M 1581 3854 
C 1581 4083 1600 4153 2106 4153 
L 2272 4153 
L 2272 4352 
C 2048 4332 1542 4332 1299 4332 
C 1050 4332 544 4332 320 4352 
L 320 4153 
L 486 4153 
C 992 4153 1011 4083 1011 3854 
L 1011 497 
C 1011 268 992 198 486 198 
L 320 198 
L 320 0 
C 544 19 1050 19 1293 19 
C 1542 19 2048 19 2272 0 
L 2272 198 
L 2106 198 
C 1600 198 1581 268 1581 497 
L 1581 3854 
z
" transform="scale(0.015625)"/>
      <path id="CMCSC10-4e" d="M 1638 4262 
C 1574 4345 1568 4352 1434 4352 
L 352 4352 
L 352 4153 
C 531 4153 986 4153 1005 4096 
C 1011 4083 1011 4077 1011 3981 
L 1011 682 
C 1011 491 1011 198 352 198 
L 352 0 
C 576 6 890 19 1101 19 
C 1312 19 1626 6 1850 0 
L 1850 198 
C 1190 198 1190 491 1190 682 
L 1190 4007 
L 3987 76 
C 4038 0 4070 0 4102 0 
C 4192 0 4192 44 4192 179 
L 4192 3669 
C 4192 3860 4192 4153 4851 4153 
L 4851 4352 
C 4627 4345 4314 4332 4102 4332 
C 3891 4332 3578 4345 3354 4352 
L 3354 4153 
C 4013 4153 4013 3860 4013 3669 
L 4013 937 
L 1638 4262 
z
" transform="scale(0.015625)"/>
      <path id="CMCSC10-46" d="M 4000 4332 
L 352 4332 
L 352 4134 
L 506 4134 
C 998 4134 1011 4063 1011 3831 
L 1011 494 
C 1011 267 998 198 506 198 
L 352 198 
L 352 0 
C 576 19 1075 19 1325 19 
C 1587 19 2170 19 2400 0 
L 2400 198 
L 2189 198 
C 1581 198 1581 280 1581 500 
L 1581 2048 
L 2182 2048 
C 2810 2048 2886 1852 2886 1311 
L 3046 1311 
L 3046 3000 
L 2886 3000 
C 2886 2446 2810 2246 2182 2246 
L 1581 2246 
L 1581 3876 
C 1581 4089 1594 4134 1894 4134 
L 2746 4134 
C 3738 4134 3917 3786 4019 2884 
L 4179 2884 
L 4000 4332 
z
" transform="scale(0.015625)"/>
     </defs>
     <use xlink:href="#CMCSC10-54" transform="scale(0.996264)"/>
     <use xlink:href="#CMCSC10-73" transform="translate(78.316725 0) scale(0.996264)"/>
     <use xlink:href="#CMCSC10-61" transform="translate(123.923303 0) scale(0.996264)"/>
     <use xlink:href="#CMCSC10-6c" transform="translate(185.027339 0) scale(0.996264)"/>
     <use xlink:href="#CMCSC10-6c" transform="translate(236.168689 0) scale(0.996264)"/>
     <use xlink:href="#CMCSC10-69" transform="translate(287.310039 0) scale(0.996264)"/>
     <use xlink:href="#CMCSC10-73" transform="translate(317.419251 0) scale(0.996264)"/>
     <use xlink:href="#CMCSC10-2d" transform="translate(363.02583 0) scale(0.996264)"/>
     <use xlink:href="#CMCSC10-49" transform="translate(400.662114 0) scale(0.996264)"/>
     <use xlink:href="#CMCSC10-4e" transform="translate(441.065684 0) scale(0.996264)"/>
     <use xlink:href="#CMCSC10-46" transform="translate(522.149711 0) scale(0.996264)"/>
    </g>
   </g>
   <g id="text_23">
    <!-- problem -->
    <g style="fill: #262626" transform="translate(635.121837 139.774673) scale(0.165 -0.165)">
     <defs>
      <path id="CMR17-62" d="M 960 4416 
L 198 4345 
L 198 4179 
C 576 4179 634 4141 634 3843 
L 634 -13 
L 749 -13 
L 934 445 
C 1120 141 1395 -64 1766 -64 
C 2406 -64 3053 503 3053 1382 
C 3053 2209 2477 2816 1830 2816 
C 1434 2816 1152 2603 960 2351 
L 960 4416 
z
M 973 2022 
C 973 2138 973 2157 1062 2293 
C 1312 2681 1670 2713 1792 2713 
C 1984 2713 2643 2610 2643 1388 
C 2643 109 1888 38 1734 38 
C 1536 38 1248 115 1043 490 
C 973 613 973 626 973 742 
L 973 2022 
z
" transform="scale(0.015625)"/>
     </defs>
     <use xlink:href="#CMR17-70" transform="scale(0.996264)"/>
     <use xlink:href="#CMR17-72" transform="translate(50.89537 0) scale(0.996264)"/>
     <use xlink:href="#CMR17-6f" transform="translate(86.176138 0) scale(0.996264)"/>
     <use xlink:href="#CMR17-62" transform="translate(131.866615 0) scale(0.996264)"/>
     <use xlink:href="#CMR17-6c" transform="translate(182.761984 0) scale(0.996264)"/>
     <use xlink:href="#CMR17-65" transform="translate(207.633043 0) scale(0.996264)"/>
     <use xlink:href="#CMR17-6d" transform="translate(248.118703 0) scale(0.996264)"/>
    </g>
   </g>
   <g id="line2d_48">
    <path d="M 588.921837 156.996 
L 605.421837 156.996 
L 621.921837 156.996 
" style="fill: none; stroke: #333333; stroke-width: 3; stroke-linecap: round"/>
   </g>
   <g id="text_24">
    <!-- $\Delta_{{\min}}=0.0125$ -->
    <g style="fill: #262626" transform="translate(635.121837 162.771) scale(0.165 -0.165)">
     <defs>
      <path id="CMR17-1" d="M 2598 4435 
C 2547 4544 2522 4544 2470 4544 
C 2394 4544 2387 4531 2342 4441 
L 269 108 
C 262 96 237 38 237 32 
C 237 6 243 0 358 0 
L 4576 0 
C 4691 0 4698 6 4698 32 
C 4698 38 4672 96 4666 108 
L 2598 4435 
z
M 2310 4056 
L 4083 358 
L 531 358 
L 2310 4056 
z
" transform="scale(0.015625)"/>
      <path id="CMR17-6e" d="M 2656 1954 
C 2656 2282 2592 2816 1837 2816 
C 1331 2816 1069 2424 973 2166 
L 966 2166 
L 966 2816 
L 211 2745 
L 211 2578 
C 589 2578 646 2540 646 2231 
L 646 443 
C 646 198 621 166 211 166 
L 211 0 
C 365 12 646 12 813 12 
C 979 12 1267 12 1421 0 
L 1421 166 
C 1011 166 986 192 986 443 
L 986 1678 
C 986 2269 1344 2713 1792 2713 
C 2266 2713 2317 2289 2317 1980 
L 2317 443 
C 2317 198 2291 166 1882 166 
L 1882 0 
C 2035 12 2317 12 2483 12 
C 2650 12 2938 12 3091 0 
L 3091 166 
C 2682 166 2656 192 2656 443 
L 2656 1954 
z
" transform="scale(0.015625)"/>
     </defs>
     <use xlink:href="#CMR17-1" transform="scale(0.996264)"/>
     <use xlink:href="#CMR17-6d" transform="translate(76.91959 -14.943915) scale(0.697382)"/>
     <use xlink:href="#CMR17-69" transform="translate(130.763057 -14.943915) scale(0.697382)"/>
     <use xlink:href="#CMR17-6e" transform="translate(148.172715 -14.943915) scale(0.697382)"/>
     <use xlink:href="#CMR17-3d" transform="translate(211.971464 0) scale(0.996264)"/>
     <use xlink:href="#CMR17-30" transform="translate(311.360262 0) scale(0.996264)"/>
     <use xlink:href="#CMMI12-3a" transform="translate(357.050739 0) scale(0.996264)"/>
     <use xlink:href="#CMR17-30" transform="translate(384.147916 0) scale(0.996264)"/>
     <use xlink:href="#CMR17-31" transform="translate(429.838393 0) scale(0.996264)"/>
     <use xlink:href="#CMR17-32" transform="translate(475.52887 0) scale(0.996264)"/>
     <use xlink:href="#CMR17-35" transform="translate(521.219347 0) scale(0.996264)"/>
    </g>
   </g>
   <g id="line2d_49">
    <path d="M 588.921837 179.992327 
L 605.421837 179.992327 
L 621.921837 179.992327 
" style="fill: none; stroke-dasharray: 12,4.5; stroke-dashoffset: 0; stroke: #333333; stroke-width: 3"/>
   </g>
   <g id="text_25">
    <!-- $\Delta_{{\min}}=0.025$ -->
    <g style="fill: #262626" transform="translate(635.121837 185.767327) scale(0.165 -0.165)">
     <use xlink:href="#CMR17-1" transform="scale(0.996264)"/>
     <use xlink:href="#CMR17-6d" transform="translate(76.91959 -14.943915) scale(0.697382)"/>
     <use xlink:href="#CMR17-69" transform="translate(130.763057 -14.943915) scale(0.697382)"/>
     <use xlink:href="#CMR17-6e" transform="translate(148.172715 -14.943915) scale(0.697382)"/>
     <use xlink:href="#CMR17-3d" transform="translate(211.971464 0) scale(0.996264)"/>
     <use xlink:href="#CMR17-30" transform="translate(311.360262 0) scale(0.996264)"/>
     <use xlink:href="#CMMI12-3a" transform="translate(357.050739 0) scale(0.996264)"/>
     <use xlink:href="#CMR17-30" transform="translate(384.147916 0) scale(0.996264)"/>
     <use xlink:href="#CMR17-32" transform="translate(429.838393 0) scale(0.996264)"/>
     <use xlink:href="#CMR17-35" transform="translate(475.52887 0) scale(0.996264)"/>
    </g>
   </g>
   <g id="line2d_50">
    <path d="M 588.921837 202.988654 
L 605.421837 202.988654 
L 621.921837 202.988654 
" style="fill: none; stroke-dasharray: 3,3; stroke-dashoffset: 0; stroke: #333333; stroke-width: 3"/>
   </g>
   <g id="text_26">
    <!-- $\Delta_{{\min}}=0.05$ -->
    <g style="fill: #262626" transform="translate(635.121837 208.763654) scale(0.165 -0.165)">
     <use xlink:href="#CMR17-1" transform="scale(0.996264)"/>
     <use xlink:href="#CMR17-6d" transform="translate(76.91959 -14.943915) scale(0.697382)"/>
     <use xlink:href="#CMR17-69" transform="translate(130.763057 -14.943915) scale(0.697382)"/>
     <use xlink:href="#CMR17-6e" transform="translate(148.172715 -14.943915) scale(0.697382)"/>
     <use xlink:href="#CMR17-3d" transform="translate(211.971464 0) scale(0.996264)"/>
     <use xlink:href="#CMR17-30" transform="translate(311.360262 0) scale(0.996264)"/>
     <use xlink:href="#CMMI12-3a" transform="translate(357.050739 0) scale(0.996264)"/>
     <use xlink:href="#CMR17-30" transform="translate(384.147916 0) scale(0.996264)"/>
     <use xlink:href="#CMR17-35" transform="translate(429.838393 0) scale(0.996264)"/>
    </g>
   </g>
   <g id="line2d_51">
    <path d="M 588.921837 225.98498 
L 605.421837 225.98498 
L 621.921837 225.98498 
" style="fill: none; stroke-dasharray: 9,3.75,4.5,3.75; stroke-dashoffset: 0; stroke: #333333; stroke-width: 3"/>
   </g>
   <g id="text_27">
    <!-- $\Delta_{{\min}}=0.1$ -->
    <g style="fill: #262626" transform="translate(635.121837 231.75998) scale(0.165 -0.165)">
     <use xlink:href="#CMR17-1" transform="scale(0.996264)"/>
     <use xlink:href="#CMR17-6d" transform="translate(76.91959 -14.943915) scale(0.697382)"/>
     <use xlink:href="#CMR17-69" transform="translate(130.763057 -14.943915) scale(0.697382)"/>
     <use xlink:href="#CMR17-6e" transform="translate(148.172715 -14.943915) scale(0.697382)"/>
     <use xlink:href="#CMR17-3d" transform="translate(211.971464 0) scale(0.996264)"/>
     <use xlink:href="#CMR17-30" transform="translate(311.360262 0) scale(0.996264)"/>
     <use xlink:href="#CMMI12-3a" transform="translate(357.050739 0) scale(0.996264)"/>
     <use xlink:href="#CMR17-31" transform="translate(384.147916 0) scale(0.996264)"/>
    </g>
   </g>
  </g>
 </g>
 <defs>
  <clipPath id="p7fb4876248">
   <rect x="66.896702" y="24.91263" width="485.973589" height="213.94734"/>
  </clipPath>
 </defs>
</svg>
